<?xml version="1.0" encoding="UTF-8"?>
<svg id="Layer_1" data-name="Layer 1" xmlns="http://www.w3.org/2000/svg" viewBox="0 0 753.43 606.21">
  <defs>
    <style>
      .cls-1 {
        fill: #f49920;
      }

      .cls-2 {
        fill: #f49c1f;
      }

      .cls-3 {
        fill: #f59b1f;
      }

      .cls-4 {
        fill: #f69e1e;
      }

      .cls-5 {
        fill: #f99c1d;
      }

      .cls-6 {
        fill: #f59a1f;
      }

      .cls-7 {
        fill: #f5981f;
      }

      .cls-8 {
        fill: #f69b1f;
      }

      .cls-9 {
        fill: #f8991e;
      }

      .cls-10 {
        fill: #f89e1d;
      }

      .cls-11 {
        letter-spacing: 0em;
      }

      .cls-12 {
        fill: #f49b1f;
      }

      .cls-13 {
        fill: #f49720;
      }

      .cls-14 {
        fill: #f79a1e;
      }

      .cls-15 {
        fill: #f89b1e;
      }

      .cls-16 {
        fill: #eda14f;
      }

      .cls-17 {
        fill: #f69d1e;
      }

      .cls-18 {
        fill: #f99f1c;
      }

      .cls-19 {
        fill: #f99f1d;
      }

      .cls-20 {
        fill: #f7991e;
      }

      .cls-21 {
        letter-spacing: 0em;
      }

      .cls-22 {
        letter-spacing: 0em;
      }

      .cls-23 {
        fill: #f79b1e;
      }

      .cls-24 {
        fill: #f39720;
      }

      .cls-25 {
        fill: #f6991f;
      }

      .cls-26 {
        letter-spacing: -.02em;
      }

      .cls-27 {
        fill: #f69c1e;
      }

      .cls-28 {
        fill: #f49a1f;
      }

      .cls-29 {
        fill: #f39c1f;
      }

      .cls-30 {
        fill: #f79c1f;
      }

      .cls-31 {
        fill: #f39c25;
      }

      .cls-32 {
        fill: #f29821;
      }

      .cls-33 {
        fill: #f6991e;
      }

      .cls-34 {
        fill: #f79a1f;
      }

      .cls-35 {
        fill: #df9d34;
      }

      .cls-36 {
        fill: #f69a1f;
      }

      .cls-37 {
        letter-spacing: -.03em;
      }

      .cls-38 {
        fill: #f89d1e;
      }

      .cls-39 {
        fill: #f89f1d;
      }

      .cls-40 {
        fill: #f69c1f;
      }

      .cls-41 {
        fill: #f79e1e;
      }

      .cls-42 {
        fill: #f47721;
        font-size: 50px;
      }

      .cls-42, .cls-43 {
        font-family: SmileySans-Oblique, 'Smiley Sans';
        font-style: oblique;
      }

      .cls-44 {
        fill: #f59720;
      }

      .cls-45 {
        fill: #f69a20;
      }

      .cls-46 {
        fill: #f39b1f;
      }

      .cls-47 {
        fill: #f79d1e;
      }

      .cls-48 {
        fill: #f79d22;
      }

      .cls-49 {
        fill: #f69720;
      }

      .cls-50 {
        fill: #f49a20;
      }

      .cls-43 {
        fill: #242d62;
        font-size: 226.2px;
      }

      .cls-51 {
        fill: #f59820;
      }

      .cls-52 {
        fill: #f59c1f;
      }

      .cls-53 {
        fill: #f3a233;
      }

      .cls-54 {
        letter-spacing: 0em;
      }

      .cls-55 {
        fill: #f69520;
      }

      .cls-56 {
        letter-spacing: 0em;
      }

      .cls-57 {
        fill: #f6a021;
      }

      .cls-58 {
        fill: #f79d1d;
      }

      .cls-59 {
        letter-spacing: 0em;
      }

      .cls-60 {
        fill: #f29b20;
      }
    </style>
  </defs>
  <path class="cls-18" d="M689.51,136.32c-1.33,3.1,1.22,4.34,3.56,2.25,2.47,1.55,5.13,2.2,7.96,1.93,19.54,8.63,36.6,21.37,52.4,35.61v21.99c-3.19,1.45-5.89,4.86-8.83,6.37-.79.4-7.85,2.88-8.29,2.86-3.84-.17-6.75-5.02-9.09-7.13l.2-2.32c3.93-.02-2.45-9.69-4.13-10.64-3.9.5-5.92-.86-6.04-4.08-5.68-3.64-9.11-7.78-11.14-14.16-3.95-1.83-5.12-3.93-3.51-6.28-2.14-1.2-3.43-2.24-1.58-4.41,7.75-3.64,12.66,6.41,13.29,13.07,3.94.87,7.12,4.09,9.53,9.68,4.97-2.83,8.18-2.47,9.61,1.09,14.43,5.88,12.22-8.75.39-10.77l-5.26-5.78c-9.51-1.27-17.7-5.99-24.56-14.16-.94,2.49-1.94,4.78-3.01,6.88-5,2.69-13.32-2.86-12.17-8.9-5.29-1.05-7.69-3.81-7.17-8.29-2.3.53-3.28-.37-2.67-2.71,4-4.83,5.82-2.96,10.48-2.09Z"/>
  <path class="cls-39" d="M142.5,360.43c5.05-6.56,14.51,1.26,13.3,8.12,1.29.55,2.1,1.33,2.42,2.36,5.22-3.64,4.35,5.14,2.71,8.73l.5,2.76c4.42-1.7,6.15-.99,5.18,2.12-3.13,8.24-5.49,16.82-8.38,25.13-.03,2.66-.73,3.71-2.1,3.14-1.87-.38-3.84,1.71-5.9,6.26-6.62,1.19-7.64,2.63-9.93,8.77-3.57.99-5.29,4.12-5.15,9.37-2.48,2.37-3.23,4.78-2.26,7.23-1.86,9.79-4.88,19.41-9.06,28.86-.4,4.6.43,9.34,2.58,13.43l-.66,2.53c-7.78,2.14-16.87-1.19-23.05-6.28l1.57-2.16c-6.88-7.66-7.41-13.75-1.58-18.27-1.47-3.11-2.39-5.89-.45-9.01-2.21-2.98-2.68-6.55,1.6-7.06-2.11-5.16-1.32-8.67,2.38-10.51.05-3.99,1.26-7.28,3.63-9.87-.76-1.3.27-10.31,1.89-8.9.16.14-1.58,3.44-2.75.85,1.03-2.71,2.23-5.02,3.14-7.33,1.46,1.84,2.74-2.31,3.05-4.7,6.98-6.57,9.08-13.38,11.27-22.6l2.45-.97,1.35-2.04c5.37.02,7.39-4.15,6.06-12.5.41-3.37,2.41-10.15,6.21-7.45Z"/>
  <path class="cls-33" d="M476.78,72.44c4.46-3.01,5.15,2.45,1.05,5.24,1.91.32,3.66,1.02,5.24,2.09,2.43-2.15,5.5,1.97,3.14,4.19,1.37,6.17,1.97,12.56,1.05,18.85.94.19.9.55,0,1.05-.3.91-.65.9-1.05,0-2.65,2.53-2.62,4.55-1.05,6.28,1.93.57,2.34,5.53,0,5.24.1,1.87,1.33,2.01,3.05,1.92,2.64,4.28,4.45,5.5,7.85,1.32,2.37.37,14.78,7.3,15.56,8.59.61,1.01.61,1.63-.26,2.83-3.32,1.73-3.69-.05-6.34.45-12.51,2.36-28.02,11.25-41.59,13.96-2.52.5-5.09.21-7.62.24,1.69,16.33-7.48,48.16,18.87,45.04,2.76,1.18,1.71,2.58-3.14,4.19-2.41,3.26-11.74,3.25-15.77,1.94.26,6.09,3.27,11.06,9,14.91,3.34-.62,9.11.28,6.68,4.25-.63,1.03-10.76.2-12.49-.16-1.49-.38-2.52-.43-4.19-1.05-.76-.3-.74-.65,0-1.05-.48-1.94,3.48-.47,3.29-.52-2.13-.57-12.08-6.81-13.14-9.11-.7-2.84-.2-5.79,1.5-8.86-2.46-.95-3.56-2.8-4.14-5.24-6.51,1.67-7.96-4.51-7.54-9.94l1.1-10.64c-1.23-3.72-7.01-21.95,1.12-17.48l.97-2.13c7.58,2.39,7.4-1.5.49-2.21-4.45-.57-1.3-14.69-.17-15.52.66-.48,14.63.31,15.47,2.05.71-1.12,2.13-1.54,4.26-1.27,2.42-4.29,4.93-5.07,9.63-5.69l4.27-5.36c1.34-6.65,4.3-9.4,8.86-8.24-3.52-8.83-6.59-17.69-9.22-26.56-.1-2.33.09-4.74.55-7.23-19.11,3.69.55-11.01,3.65-7.89.42.43.75.95,1.04,1.5Z"/>
  <path class="cls-18" d="M583.67,98.62c-.11,1.3.01,2.35,1.05,3.14,2.94-2.48,7.69,3.49,5.24,6.28.89,2.43,1.95,4.28,3.18,5.54-2.15,5.34-1.72,13.15-1.33,19.33.05.86.82,1.67,1.8,2.48-1.01,13.76-1.9,27.37-2.68,40.83,1.99,3.16,1.94,6.86-.56,9.29,1.91,3.25,1.98,4.86.21,4.85,1.04,4.46.78,7.8-.76,10.04.15,2.91-.51,4.59-1.97,5.02-2.99,6.28-13.04,4.59-17.81,1.05-.9-1.47.08-2.74,2.96-3.8-1.96-4.79-4.31-9.22-7.05-13.3-1.33-3.76-.82-17.7,1.78-20.93-1.85-4.6-1.51-8.23,1-10.9-2.16-5.41-1.5-11.13,1.97-17.15-1.28-2.43-2.11-4.61-.49-7.18l-2.26-8.42c-.39-4.34-2.29-3.97-5.7,1.11l-4.78,4.13h-1.05c-2.01,1.83-2.56,0-1.63-5.53-6.01-6.03-9.1-16.45,2.68-11.23,5.49-3.7,10.85-4.91,16.1-3.62l2.59-10.1c-1.86-5.29,3.2-15.6,8.56-11.41,1.73,2.76,1.38,6.25-1.05,10.47Z"/>
  <path class="cls-46" d="M283.97,127.94c2.42-1.79,4.77.4,4.19,3.14l2.83,1.98c-.23,6.3.21,12.2,1.32,17.71l-1.01,2.3c1.65,12.78.52,30.51,1.05,43.98-4,2.08-6.77-8.16-3.28-10.18-4.92,1.43-10.04,2.86-15.34,4.27l-2.34-1.43c-1.76,5.22-5.53.94-3.99-3.87l-1.25-.32c-2.3-6.78-2.98-14.11-2.04-22.01-6.72,2.17-13.34,4.28-19.85,6.3l-1.17-1.05c-1.88.33-3.7.95-5.24,2.09-.37,2.18-2.79,2.74-4.19,1.05-1.88,1.12-3.98,1.81-6.29,2.09-8.21.71-7.69,3.03-15.72-1.05-.46-2.66,1.45-3.33,5.72-1.99,3.17-3.06,7.41-5.32,12.73-6.77-1.43-2.31-3.73-6.84-1.89-9.26,2.49-3.27,30.16-12.26,36.26-13.84l2.72,1.5,1.03-3.18c5.67-3.16,5.76-7.32,5.45-13.35,1.69-3.27,10.34-2.13,10.28,1.87Z"/>
  <path class="cls-19" d="M622.44,255.71c1.21-1.73,3.54-2.84,6.98-3.33,3.72-10.57,13.84-11.25,23.53-11.37l7.78-2.18c6.01-.47,8.45-.39,11.02,5.08,5.68.05,10.66,1.44,14.94,4.18,5.41,10.84,10.89,7.36,18.8,1.31l4.95.56c11.81-7.01,23.31,1.13,27.73,12.56,2.1.27,4.04-.25,5.83-1.56,3.23,6.05-.05,11.76-3.14,16.76-2.33,1.96-3.89-.46-5.2-2.61-4.44,3.03-8.47,3.34-12.1.96l-7.93-.77c-4.33-5.46-7.31-5.28-13.88-3.8-3.98-1.09-5.7-.91-5.15.54l8.48,3.31.16,2.37c-27.19-8.84-54.72-16.36-82.78-21.99Z"/>
  <path class="cls-18" d="M631.88,56.73c-1.93-2.14-3.77-10.82-1.2-12.87s11.26,3.76,10.2,7.34c3.03.39,4.57,1.53,4.62,3.43-1.62,4.98-3.88,9.61-5.23,14.66.7.71,14.58-6.9,16.77-7.87,1.1-.49,2.51-.23,3.13-.5,2.4-.68,4.79-1.02,7.18-1.02,5.15-3.6,13.54-6.07,19.57-3.39,2.19-4.88,17.13-3.82,20.7-1.58,5.36,6.07,7.18,6.62,5.45,1.66l1.6-1.95c8.1,8.74,3.43,17.3-1.05,26.18-.51.73-1.16,1.08-1.99.93-6.73-8.49-9.02-10.12-19.47-7.42l-1.59-1.88c-11.14,2.29-54.02,17.4-60.77,24.62-4.87,5.2-7.3,14.43-14.68,17.27-1.34-.72-1.99-1.5-1.29-2.76-7.67,1.84-11.09-14.06-4.78-16.65l2.89-10.83c.92-4.39,2.68-6.17,5.28-5.37l1.12,4.18-4.25,18.31c.16-4.25,3.5-6.49,10.03-6.72,3.8-7.55,7.52-10.68,15.05-14.75-4.97-3.37-6-6.16-3.09-8.36,1.14-2.83.79-4.57-1.05-5.24-3.36.21-5.3-7.57-3.14-9.43Z"/>
  <path class="cls-46" d="M239.96,225.34c2.22,2.79-1.56,10.25-5.24,9.43-.84.46-2.01.71-2.46.02-2-3.04-4.86-2.48-7.62.46-2.49,6.28-6.24,11.13-11.26,14.56,3.31,11.95-4.65,27.75-17.49,30.39,2.06,4.29,2.04,8.83-.05,13.61,3.45,5.64,1.94,8.78-.8,14.37,1.07,3.45.36,5.61-2.15,6.47l-3.22,11.23c-.51,2.67-1.29,5.8-2.1,8.38-.3.76-.65.75-1.05,0-1.35-.36-2.91-.48-4.35-.18-1.55,3.87-7.02,8.43-9.28,3.32-2.57-1.01-1.42-4.6,0-6.28l1.22-1.94c4.54,1.66,6.05-.8,4.52-7.39-3.53.57-7.1.33-9.5-2.65l-5.24,7.78c-.64,2.16-1.83,3.21-3.57,3.16.38,2.03-.85,2.73-2.1,1.05-2.28-.61-2.72-2.44-1.34-5.47,5.45-8.87,9.67-18.27,13.21-28.2,1.35-2.2,5.57-7.51,7-4.03l1.24,2.01-4.25,10.6c.11,1.11,7.44,8.64,9.32,6.55,5.88,5.95,10.69-19.71,2.94-19.15l-2.2-2.81c-2.57,2.51-4.92,3.44-7.05,2.79-3.35-.67-1.6-5.87,1.45-6.46,4.81-10.07,10.61-19.78,17.41-29.15l-1.43-2.05,3.6-9.17c1.94-2,2.62-3.85,2.02-5.54.71-1.13,1.45-2.13,2.1-3.14l2.02.12c4.99-5.82,9.75-11.84,14.28-18.04l2.56.12c7-18.15,24.36-15.84,18.86,5.24Z"/>
  <path class="cls-41" d="M655.98,235.81c4.74-.21,8.93.48,12.57,2.09,2.19-1.05,5.63-.8,4.86,2.32l3.17,1.43c2.71-3.34,10.55-3.38,12.37.7,1.87,12.23,8.19,11.43,15.33,2.7l4.1-1.92c4.41.52,8.95,1.22,13.62,2.09,5.39,1.46,10.88,2.4,15.72,5.24,1.41.75,2.48,1.66,3.14,3.14,1.32,4.19,1.29,3.86,3.14,7.33-.73,5.92-4.69,2.5-8.37,4.19,1.45-6.33-8.62-15.06-14.11-15.76-6.12-.78-7.23,2.16-10.87,2.65-2.05.27-4.2-1.06-6.75-.32-1.38.4-2.85,2.58-4.94,3.48-10.13,4.38-7.33-.44-11.55-4.17-.48-.43-6.72-4.11-7.26-4.27-3-.89-7.45.13-9.85-1.42-1.39-.9-1.01-3.03-1.98-4.03-2.76-2.87-11.81,1.29-15.02,1.78-5.36.82-8.83-.62-15.41,2.4-9.09,4.17-1.36,10.35-15.43,10.23-7.89-.07-15.75-2.34-23.58-3.14-10.23-1.04-20.65-1.4-30.91-2.1-.85-2.05-.4-2.5,1.5-3.03l10.14-.09,8-6.75c-.68-1.89.81-3.14,4.47-3.75,20.9-2.13,42.89-3.61,63.92-1.05Z"/>
  <path class="cls-47" d="M113.16,172.97c9.02-2.32,8.3-5.14,5.47-13.34.52-7.31,13.1-7.09,12.04,5.59-2.5,3.16-2.35,9.27,2.92,8.06,2.21,1.87,4.48,3.16,6.82,3.88,1.12,2.54.44,7.49,1.05,9.43,1.04.25,2.43.25,4.19,0,1.48.11,2.53.46,3.14,1.05,4.66,1.21,8.37,1.49,12.01-1.94,2.32-.58,11.89,1.36,13.51,3.04.32.33,1.61,7.48-.92,7.97-2.95,1.95-4.74,3.29-5.75,6.63-6.54,2.53-8.29-.48-5.24-9.02-5.66,1.08-11.26.27-16.79-2.43-4.43.45-8.05-.34-10.85-2.37-3.35-9.18-6.15-5.59-8.38,10.76l-4.76,7.46c5.75,17.23,13.72,16.27,15.87-1.06,2.38-6.21,11.65-2.28,9.19,2.93-.09,2.56-.79,4.65-2.1,6.28.31,3.32.31,6.46,0,9.43.4,8.51-3.38,9.54-11.34,3.1-6.41,3.73-9.97,3.75-10.67.04l-2.16-.75c-.11-3.72-.79-6.96-2.03-9.72-.3,2.49-.87,3.09-1.85.75l-9.86,1.48c-2.31-1.81-1.98-4.37-1.32-6.88l-6.93-3.99c-2.21-1.35-3.64-2.56-2.05-4.98.14-1.48,1.14-2.22,2.99-2.23,5.64.79,24.08,2.43,16.92-7.2l1.04-9.42c-10.88,1.46-26.44,11.6-36.67,6.28.07-3.98,6.13-9.03,9.93-10.25,1.03-3.24,3.01-7.23,7.19-6.07l1.95-1.84c4.51.47,8.98.24,13.41-.69Z"/>
  <path class="cls-23" d="M78.58,90.24c.23-6.96,10.98-4.57,13.9.66,3.36-2.49,6.06-3.06,8.11-1.71l1.21,1.72c2.78-3.52,9.02-4.91,9.27.37,4.15,1.89-1.03,7.58-3.41,9.93l.27,1.59c-1.11,2.99-4.03,4.92-8.76,5.79-.25.36,1.56,7.57,1.98,8.41.6,1.22,23.07-7.76,25.49-8.79,8.29-3.53,11.27-6.65,11.68-14.84-1.89-2.3-.48-3.22,2.1-2.09,2.19-3.91,7.01-.38,5.35,3.8.73,2.16,2.98,7.63,5.56,7.47,4.15-3.28,11.61-.91,6.91,3.39-2.16,4.44-6.79,4.8-13.89,1.08l-4.45,1.75c.4,4.82-2.47,8.4-8.63,10.74,1.04,3.17.6,5.28-1.33,6.33,1.05,2.33-.35,3.03-4.19,2.09-5.47,1.57-10.88,3.89-16.51,4.97-2.73.52-5.81-.24-7.91.25-2.86.67-3.63,11.22-15.4,4.21-.99-1.4-.47-2.86,1.57-4.37-5.03-4.91-11.35-12.85-2.27-16.76-2.06-1.49-4.29-2.72-6.7-3.69-.48-.48-3.32-11.83-2.25-12.82,1.96-1.17,6.73-8.84,3.5-7.34l-1.18-2.15Z"/>
  <path class="cls-12" d="M260.91,71.39c7.33,4.94,17.01,7.29,26.26,7.57,1.35,1.67,2.38,2.98,3.08,3.95.03,11.29.42,22.61,1.15,33.97l-1.15,1.64c-3.08,5.33-4.4-1.85-3.55-5.7-4.83.71-5,3.61-.5,8.7,1.3,2.93,1.75,6.58-2.24,6.42-2.66-1.16-5.59-1.44-8.38-2.09-.16,3.49-.67,10.44-3.11,12.91-.86.87-2.1.53-2.81,1.04-.94.68-1.02,2.46-2.47,2.81-2.53.39-3.23-1.71-2.1-6.28-.4-2.04-.21-6.98.09-9.76.88-4.79.3-8.58-1.74-11.39l.54-25.39-25.05,5.6c-1.79.04-3.68-.09-5.28-.96-2.33-1.12-4.41-1.42-7.34-3.14-.55-3.07,2.76-3.69,4.19-1.05,2.7.5,5.2.49,3.35-3.74-.43-10.65,2.46-11.02,11.84-10.55,5.05,7.65,9.98,6.45,8.03-3.1.97-2.99,5.17-3.64,7.17-1.46Z"/>
  <path class="cls-33" d="M384.57,107c3.99.34,2.87,7.09-1.05,7.33l2.15.52,2.86,33.3c7.09-2.76,11.4-6.18,12.22-13.89l2.54-12.61,2.24-1.04.72-5.54c-.65-4.99-1-13.58,4.39-6.72,2.49,3.17,2.84,21.94,1.18,26.64l.86,1.15c7.78-.19,9.94,1.27,6.46,4.37-.13,2.65.22,4.39,1.05,5.24.59-2,1.5-2,2.1,0,1.98.32,1.87,1.15,0,2.09l-1.07,2.61c.91,1.6.57,2.13-1.03,1.58-2.74,4.62-5.54,5.32-10.63,4.6-4.47-3.6-9.9-4.71-14.1-.99-13.8-1.09-16.62,3.29-10.23,14.92.33,1.82,0,4.71-1.72,5.56-.45.27-.51,1.84-2.63,2.12-5.47.73-7.8-.57-10.99-4.22.22-1.92,1.58-2.16,4.08-.72-.04-7.12-2.69-11.3-7.95-12.53-2.96-7.51-3.6-15.83-1.92-24.97-2.88-8.17,2.37-12.86,7.89-5.76.8-.88,2.06-1.28,3.76-1.18l.83-10.35c.78-3.2,3.29-10.3,5.88-11.51.33-2.78,1.3-2.66,2.1,0Z"/>
  <path class="cls-33" d="M539.66,154.12c1.06,2.38-.66,6.23-3.14,6.28-1.13,2.33-2.53,4.77-4.19,7.33l-2.1,3.14c.13,3.89,1.28,7.25,3.44,10.09l-.3,2.48c-7.54,9.58-13.66,14.64-24.1,20.95-1.58.34-3.14.78-4.19,2.09-1.37.73-2.78,1.44-4.19,2.09l-10.86,3.92c-2.7-.7-4.1-11.7.34-11.43,7.5,5.68,13.23-4.66,1.66-.5l-2.3-2.54c-7.04.78-13.11-.59-18.18-4.11-2.68-5.24.68-1.98,2.16-2.64.61-.27.78-1.47.99-1.55,5.56-2.02,11.26-3.41,16.73-5.79,16.7-7.28,31.25-18.73,45.11-30.35,2.27-1.12,2.03-.45,3.13.54Z"/>
  <path class="cls-14" d="M154.03,32.64l7.14,1.8c1.45-1.11,3.19-.55,5.24,1.66,5.05.17,21.92,2.75,25.07,6.16.52.56.94,1.22,1.32,1.9.94.31,2.19,1.76,3.14,2.09,3.19,2.04,5.64,3.03,9.43,3.14,2.3.91,4.67.51,7.29,2.67,6,4.95,1.42,7.2,1.46,9.39.01.72,1.41,1.55,1.54,2.29.43,2.46-7.08,7.59-9.24,8.7-5.8,1.38-11.74,1.38-17.81,0-15.9-3.58-29.74-12.65-44.01-15.71-.56,5.87-6.99,3.41-6.99-2.09-1.1-4.05-2.97-5.8-5.58-5.24-2.4,3.14-11.4-1.62-10.48-5.24l.64-2.39c7.33,1.25,11.72-.17,13.15-4.26-3.79-1.94-1.82-8.91,1.93-9.06,5.63,1.32,11.03,3.35,16.77,4.19Z"/>
  <path class="cls-7" d="M150.88,126.89c1.21.11,2.08.59,3.14,1.05.98,1.42,2.38,2.47,4.19,3.14.31.37.91.76,1.05,1.05,1.12,2.11.76,6.4-2.1,5.24-.91,1.22-1.94,2.07-3.22,1.31-7.27-7.35-12.94-7.71-16.99-1.07-5.97-.73-5.8,1.32.51,6.16,2,2.23,2.44,4.35-.21,6.17-1.47.75-3.1,1.22-4.17,2.62,1.97.68,2.89,5.57,3.15,5.77,1.07.82,16.86-8.66,26.09-3.6,3.66,2,4.75,6.16,3.22,9.87-3.52,3.51-7.28,5.05-11.27,4.63-3.11,4.62-7.66,3.38-9.36-1.62-2.51-.09-3.03,3.69-.27,3.5,6.16,4.75-7.8,6.96-9.36,3.42-6.03-.44-7.09-9.65-.72-11.25-3.91-1.16-4.84-2.94-6-6.66-3.77-1.65-7.04-3.6-9.81-5.84,2.5-6.24-9.06,1.91-9.49,2.44-.76,4.18-3.41,6.98-5.68,2.35-2.17-4.49-17.77,1.97-18.31,3.03-.16,4.47-1.7,6.47-4.62,6.01-5.49-1.53-9.97-4.67-5.54-10.53l52.7-21.93c2.56-2.71,4.65-3.06,6.29-1.05,5.06-2.55,11.05-4.69,16.77-4.19Z"/>
  <path class="cls-58" d="M145.64,252.56c-.1,1.22-1.39,5.97-2.1,7.33l-1.95-1.81c-.67,7.43-3.15,10.26-7.43,8.48-2.43,7.63-7.07,11.21-13.53,15.34-.46.47,3.54,10.13,5.88,10.65l-2.89,2.95c-1.11.66-1.87,1.72-3.43,2.34s-2.71.47-3.9.8c-3.06-.73-7.48-1.05-13.25-.97l-1.62-2.35c-5.16-1.1-8.02-1.9-8.75-7.54-6.26-3.73-12.89-8.28-4.84-14.89,5.8,1.45,14.07,2.12,19.5.11l3.45,1.5c.84-3.7,2.36-6.73,4.56-9.11-1.75-6.01.54-7.9,4.82-11.24-2.21-4.64-.35-9.71,4.51-6.82l1.78-1.94c9.76,5.92,14.09,5.57,12.98-1.05l2.7-6.19c-.31-5.07.85-7.24,3.49-6.53l1.42,1.14c-1.32,5.08-1.42,12.64.22,17.56l-1.64,2.24Z"/>
  <path class="cls-46" d="M291.3,153.08c-.07-.58-1.78-1.98-2.07-3.75-.83-5.01,1.37-12.92-1.07-18.24,4.59-1.44,11.74-1.03,16.66.99,2.53-5.13,5.51-5.75,11.04-5.12.93-2.51,3.02-3.45,5.57-3.18.28-3.02,8.42-3.32,11.4-3.27s6.03.13,8.71,2.02l.59-1.76c-2.77-.92-4-2.36-3.67-4.35.09,0,.5-.91,1.33-.78,5.29.76,10.92,10.44,10,15.7-.72,4.09-4.9,7.9-8.76,9.12l-49.73,12.62Z"/>
  <path class="cls-60" d="M125.73,489.24c-3.22-3.09-4.91-13.04-3.82-17.09,1.98-7.34,10.16-22.1,8.69-29.34-.2-1-2.61-2.95-1.73-3.83.14-.14,1.96.46,3.21-.69,2.19-2.01,1.44-7.73,3.06-10.08.88-1.27,2.69-.69,3.65-1.8,1.25-1.44,1.01-4.89,3.61-6.9s5.19-1.03,7-2.42c1.5-1.15,1.47-4.61,3.52-5.9,1.66-1.05,3.79-1.25,3.18,1.61l1.06,3.41c-3.67,10.89-7.28,21.85-9.93,33.03l-2.66,2.31c2.03,1.15,1.26,4.63-1.05,5.24-.95,2.29-1.06,4.29-.34,5.99-4.1,3.25-3.38,7.91-2.53,11.8-1.73.19-2.87,1.59-3.42,4.2-2.28,5.74-5.61,8.84-11.53,10.47Z"/>
  <path class="cls-14" d="M291.3,44.16c-.27,3.52-10.31-.97-10.86-2.54,2.39-6.67.65-11.11-5.43-4.87.87,3.29,2.71,24.65,1.74,26.26-1.63,2.72-3.38,3.3-5.74.91.74,2.92-.94,4.38-5.02,4.37-1.58,2.56-3.27,3.59-5.08,3.1-1.45,1.28-5.05.87-5.25,1.05-.42.4,2.97,8.7-2.83,10.33s-6.57-4.19-7.79-5.01c-.57-.39-2.34.78-3.49.75-1.39-.03-3.08-1.02-4.17-.82-.94.17-1.61,7.99-1.4,9.08.28,1.42,2.1,3.18,1.87,3.46-.29.36-2.55-.8-2.09,1.05l3.13,1.05-7.7.03c-1-.27-.58-1.44-.68-2.11-4.91-2.03-1.79-10.15.15-14.16-2.4.51-4.2,0-5.39-1.55l41.85-13.72-2.11-32.86c.98-15.59,25.19-9.49,27.29,5.3.51,3.58-.88,7.99-1.02,10.91Z"/>
  <path class="cls-18" d="M645.5,54.63c-1.52-.71-6.34-.81-7.15-2.25-.2-.35,1.05-1.88.4-2.96-.21-.35-5.98-4.2-6.36-4.19-2.35.06.14,7.38.34,8.94.14,1.09-.9,2.35-.86,2.55.2,1.13-.01,2.66-1.17,2.3,2.21,4.97-.25,6.53-5.15,5.92-.34,4.39-4.47,12.56-8.36,13.77-4.44,4.45-3.87,12.35-6.6,17.5-.41.77-2.69.58-2.89,2.88-.1,1.21,1.36,8.54,2.13,9.49,2.28,2.78,4.6-.95,7.35-.54l-2.1,6.27c-.28.11-.69-.08-1.05,0-6.11,1.23-9.69-1.67-11.53-7.33-.08-.36-1.09-.89-1.11-2.52-.06-5.79,12.8-36.61,15.78-44.61,2.33-6.27,7.38-13.89,8.21-20.72.5-4.08-5.28-7.89,1.69-11.8,4.7-2.64,11.54-.97,15.76,2.15,9.61,7.12,5.63,15.88,2.63,25.13Z"/>
  <path class="cls-18" d="M668.55,160.41c2.37,7.2-2.2,6.92-3.15.46-4.95,5.46-8.79,6.71-11.52,3.73-5.13-2.11-9.81-16.86-7.35-20.78,1.05-1.67,1.73-2.42,3.89-2.43-3.91-8.34-4.64-15.94-4.73-24.93-6.14-4.77-.75-19.73,6.42-15.19l1.77-.56c4.44,1.6,8.86,6.63,10.2,11.27,3.65,12.64,4.81,35.15,4.47,48.42Z"/>
  <path class="cls-28" d="M124.69,7.51c3.45,5.44,1.75,6.42-1.22,11.87-1.26,2.32-5.45,3.82-.88,5.93-.94,1.83-2.25,2.36-4.18,2.1,3.31,5.19.07,9.67-4.21,12.57-.41,1.39-1.81,1.84-4.2,1.34l-16.53,20.81,1.87,1.93c.51,4.39-3.19,6.06-11.1,5,.9,3.01.41,4.84-1.47,5.47-4.39,1.8-8.41,6.07-11.53,9.43-8.53,8.61-7.2-2.07-3.06-7.63,2.77.15,4.12-.74,4.05-2.67l4.25-3.32c-1.37-2.5-.14-4.94,3.68-7.32,7.39-1.25,19.27-26.71,17.68-31.68-.24-.75-13.43,3.5-11.51,8.43l-2.51.2c-2.16,2.18-3.56,2.53-4.19,1.05l-.99-2.32c2.83-4.88,6.58-9.09,10.36-13.23.91-4.71,6.33-7.39,10.4-7.89,2.61-14.12,11.54-16.84,23.22-9.48l2.07-.59Z"/>
  <path class="cls-33" d="M504.03,79.77c.58-3.85.75-7.78.52-11.79.64-3.49,5.12-.75,4.33,3.64,1.84,1.95,2.66,3.13,2.17,6.01,3.17,1.12,2.93,3.92-.72,8.42l.36,1.39c-4.42,3.83-2.94,4.87,2.86,3.95,5.95,4.14,8.98,3.35,9.09-2.36,2.09-5.21,7.37-4.88,5.5,1.21-2.44,9.94-7.4,34.91-16.77,39.8-2.83-3.63-6.3-4.08-9.35-5.84-1.83-1.06-4.88-6.3-6.65-2.23-1.04,2.4,1.68,5.27-1.28,4.92-1.14-4.53-3.51-3.62-5.28-5.16-1.87-1.62-1.82-4.91-5.74-4.27-.09-1.26,1.59-1.5,2.09-2.08,1.28-.79,2.09-.76,2.1,1.05,1-2.65,3.66-4.41,8-5.28l6.41-30.25,2.36-1.12Z"/>
  <path class="cls-46" d="M189.66,325.87c.66-3.46-.3-9.64,1.65-12.55.56-.83,2.18-.9,2.39-1.19.13-.18-1.01-2.57-.72-4.29.43-2.59,2.9-5.58,3-7.72.11-2.3-2.03-3.65-2.21-6.17-.22-3.11,1.83-5.4,1.94-7.53.1-1.86-3.16-5.93-1.73-7.57.84-.97,9.15-2.51,12.33-7.04,2.2-3.14,5.91-12.15,6.22-15.88.25-3.01-1.83-5.59-1.41-6.52.87-1.96,4.88-3.63,6.21-5.33,3.15-4.04,4.06-12.01,10.84-13.32,2.81-.55,1.83,1.71,4.49-.49,3.27-2.7,1.41,1.55,1.39,3.14-.01.8.7,1.29.68,1.36-1.21,7.05-14.72,28.99-18.71,37.33-3.48,7.29-6.17,15.11-9.59,22.36-5.02,10.65-10.43,21.6-16.77,31.42Z"/>
  <path class="cls-18" d="M653.88,100.71c.82,4.48-4.54-.29-6.19,1.16-.44.38-3.14,9.94-3.12,10.95.02.67,2.08.55,2.81,2.2,1.45,3.28.28,9.73.97,13.74.87,5.09,4.32,9.81,4.49,14.88-1,.22-3.88-.31-4.21,0-.63.6.51,12.15,1.28,13.93.97,2.25,5.42,2.49,3.97,7.03l.03,1.46c-6.38,2.71-7.84,6.25-4.38,10.61.28,2.19-1.01,3.36-2.86,4.29,2.99,3.26,4.28,8.66.93,11.92.36,1.99-.61,4-2.91,6.05,1.02,4.56.04,7.05-5,6.56,5.66,6.8,6.21,13.91-4.66,9.39-4.39-3.85-10.74-11.2-12.57-16.76-.33-1.01-1.35-6.98-1.04-7.33,1.36-.32,2.15.66,3.14,1.04q3.19,2.56,0,0c-.33-.85-1.44-7.38.52-7.31.75.03,10.02,7.99,12.59,8.35,3.2.89,5.67-31.71,5.78-35.01.57-16.27-.37-28.88-3.17-44.57-1.94-10.85,2.09-16.71,13.62-12.57Z"/>
  <path class="cls-47" d="M40.85,83.96c1.67-5.84,15.17-6.56,18.11-3.34,2.25,2.46.8,8.71-3.14,9.04-2.96,9.4-6.09,16.64-12.88,23.63-3.83,3.44-8.69,8.67-12.57,11.52-1.29.95-4.75,2.25-6.29,3.14-2.11.29-2.9-1.26-2.37-4.68-14.07.25-13.55-10.62-3.18-17.13,0-4.1,2.58-7.16,7.73-9.19-.45-3.99.47-8.15,5.33-7.14-.06-6.25,4.68-7.66,9.27-5.85Z"/>
  <path class="cls-18" d="M146.69,209.63c-9.18-12.77-7.81,7-10.75,10.21-1.64,1.8-7.45,3.36-9.7,1.31-.89-.81-6.72-11.83-6.72-13.1-.01-2.75,3.44-5.18,4.65-7.84,1.82-4.01,2.34-16.71,5.39-17.69,5.21-1.68,5.47,6.12,8.35,6.96,1.14.33,5.58-.22,8.14.37,3.45.81,6.45,2.85,10.66,3.06,4.27.21,8.33-3.46,7.79,3.58-.28,3.59-5.71,7.02,3.15,6.86-4.91,1.44-9.75,3.75-14.67,5.24-.04,3.34-4.44,3.58-6.29,1.05Z"/>
  <path class="cls-46" d="M293.4,206.48c2.48,2.68,2.69,4.11.61,4.3-.55.88-.34,11.86,2.19,12.21.32,7.96.46,15.95-.15,23.9-3.03,2.27-3.19,9.24-2.05,12.7-1.74,1.07-2.99,2.57-3.74,4.49-.91.68-2.68,2.3-3.65,2.1l-1.59-3.15c-.5-3.24-.85-3.24-1.05,0-.44,2.1-1.89,6.1-4.71,5.23-1.68-.52-1.41-3.99-1.59-4.18-2.02-2.14-1.61,2.6-3.58,2.05-3.84-1.08-4.29-3.86-5.84-6.24l2.15-.9c1.4,1.96,8.84,2.27,10.14,1.46.44-.28,2.22-9.62,2.09-10.12-.26-1.04-10.06-6.76-12.09-6.14-.93-.94-2.69-13.85-.46-15.72-3.2-2.69-.36-11.2,3.41-11.52l10.05-6.03c-1.68-5.16,4.1-12.6,8.81-12.82.1,2.7.95,5.29,1.05,8.38Z"/>
  <path class="cls-17" d="M205.38,49.4c-14.68,1.05,2.42,4.44,2.09,13.17-.11,2.79-3.99,2.4-5.86,4.53-1.46,1.67-1.31,4.14-1.47,4.3-.28.28-3.36-1.03-4.71-1.06-6.99-.18-3.28-.55-7.55-1.88-2.2-.69-6.71.3-7.65-.21-.19-.11,1.37-2.51-.48-4.17-3.2-2.88-8.64.64-6.86-7.33-2.81-1.02-1.68,1.9-2.76,2.13-5.76,1.2-6.73-3.59-9.07-4.96-1.09-.64-9.62-2.94-10.14-3.5-.6-.65,1.75-6.56,1.02-8.33,3.21.8,8.94,1.96,12.05,1.89,1.93-.04,6.41-2,6.69-1.8.37.26.64,2.82,1.71,3.06.79.18,4.16-2.59,6.09-2.06.59.16,5.86,5.71,6.53,6.12,1.7,1.04,3.82.94,5.62,1.76,1.6.73,2.15,3.15,4.25,2.55-.6-3.14,5.51-5.59,1.06-7.33,3.26,1.13,5.89,1.75,9.43,3.14Z"/>
  <path class="cls-58" d="M122.59,228.48c1.68.87,1.68,2.78.02,5.73,1.79,2.3,7.12,10.78,3.77,12.57-.51.28-1.1.43-1.7.54-.25.02-4.14,2.26-4.17,2.61-.02.31,1.44,1.61,1.64,2.59,1.05,4.91-4.35,4.78-5.3,7.31-.5,1.35.97,4.32.47,6.65-.14.67-1.55.63-1.97,1.58-.53,1.23-2.79,8.18-3.3,8.55-1.46,1.06-3.93-1.7-4.67-1.69s-1.88,1.56-3.22,1.74c-2.07.27-3.97-.95-6.11-.98-3.63-.05-5.54,2.06-10.05-1.13-5.68,8.58,4.11,8.08,6.78,12.62.72,1.22.19,3.14.77,3.91.66.88,7.56,2.58,9.21,2.83l-1.06,2.62c2.97.09,5.97-.09,8.95.01,2.01.07,4.2-1.07,3.62,2.09-16.19,4.49-36.56-4.01-50.3-12.57-2.54-2.17-2.12-3.27,1.05-2.09,1.79.49,3.43.66,5.24,0,1.58-6.2,13.04.23,5.24,3.14q-4.11-.44,0,0c1.68-1.16,2.57-2.16,2.67-2.99-7.81-9.4-7.27-13.04,1.62-10.91,1.87-4.03,2.61-4.28,7.23-3.91,11.51,1.77,18.68,3.89,23.56-8.4,4.61-11.6,4.37-24.58,5.78-36.63l-.54-4.39c-1.25-1.49-1.06-2.12.54-1.89.6-.12,1.8-1.44,2.09-1.05-.51,3.29,2.15,8.87,2.11,11.52Z"/>
  <path class="cls-17" d="M346.84,183.45c1.92,1.01,3.56,2.22,5.24,3.14l-.77,1.34c4.65,4.51,7.29,9.91.47,13.98-.44,2.3,1.56,2.7,3.46,2.22,3.22-3.13,6.69-6.03,9.59-.84,2.42-.56,4.46-1.59,6.11-3.08.5,1.15,2.14,2.19,2.09,3.65-.04,1.34-1.63,2.33-1.76,3.34-.19,1.38.83,2.69.31,4.55-1.33,4.8-10.02,10.13-14.93,10.39-3.78.2-4.19-1.13-6.67-2.03-1.51-.68-1.89-2.1-1.16-4.26-5.16-3.01-9.93-6.62-14.29-10.82-5.59-1.38-7.95-3.89-7.08-7.54-4.16,1.09-7.06-3.2-2.62-4.61.81-11.3,7.57-18.17,17.76-8.32,1.41-1.07,2.82-1.43,4.24-1.1Z"/>
  <path class="cls-10" d="M260.91,71.39c2.09-1.84,2.31-6.53,8.39-5.24.65-.65-3.15-5.45,2.52-5.31.57.01.76,4.05,2.7,2.17.93-.9.03-9.68-.28-11.73-1.04-7,0-5.58.03-11.01.01-2.21-3.4-2.97.76-6.61,5.83-5.09,11.69.59,6.83,7.34l9.43,3.15c-.17,3.47.11,7,.01,10.47l5.23-1.05c1.72,2.59-3.85,3.27-5.24,2.09-3.28-1.25-3.37,1.74-.28,8.98l2.07,13.41-1.79,1.71c.07.33-.06.71,0,1.05-.16.97-.51,1.66-1.05,2.09-2.87,2.54-2.45-2.01-3.79-2.08-8.53-.47-10.85-.17-18.97-3.97-3.74-1.75-5.73.12-6.58-5.47Z"/>
  <path class="cls-46" d="M265.11,136.32c2.26-.69,4.26-2.84,4.15-5.77-.05-1.43-1.8-2.61-2.06-4.26-.43-2.72,1.33-8.88.13-12.35,4.08-3.59,6.52-1.24,6.29,4.1-.08,1.93-2.08,1.36-2.24,2.25-.48,2.66,1.23,11.9.9,13.35-.4,1.75-7.63,4.04-5.06,8.97-14.12,3.36-19.52,5.71-32.48,11.89-1.16.55-4.37-.82-5,2.38-.51,2.56,2.64,6.52,2.62,7.23-.08,3.49-9.45,4.66-11.61,5.93-1.41.83-1.55,2.8-2.48,3-1.66.36-4.51-1.34-6.59-.06-6.52-3.31-13.7-9.74-6.24-16.18,19.08-7.15,38.49-13.39,57.58-20.47,1.61-1.53,2.3-1.53,2.1,0Z"/>
  <path class="cls-33" d="M403.43,108.04c-1.74-.53-3.62-.95-5.62-1.26-7.11-9.17-.2-17.75,9.86-11.68,5.68-3.56,13.65-2.49,16.09,4.39l2.72-.88c3.42,9.68.97,13.48,1.05,23.04l-.71,5.95c1.81,2.5,1.05,9.65-2.43,10.8-.75,1.28-1.45,1.63-2.1,1.05.43,1.49.31,1.94-1.05,1.05-.7,2.7-1.4,2.7-2.1,0-.09-.09.28-1.36-.73-2.12-2.09-1.58-3.19.9-4.49.55-7.79-2.12-2.76-9.67-2.63-13.17.2-5.58-2.75-12.15-2.64-17.73-2.45-.15-1.85-.35-2.09,1.55-.44,3.44,1.2,8.06-1.05,11.01l-2.02-.99c.43-4.53.41-8.39-.07-11.58Z"/>
  <path class="cls-13" d="M379.33,98.62c1.88,3.74,3.66,2.36,6.29,0,2.59-1.83,4.68-2.72,7.34-4.19,8.7-1.32-1.02,8.6-5.99,8.82-.02,2.23-.82,3.48-2.39,3.74h-2.1c-3.61-4.27-6.73-2.15-5.49,3.42-3.45,3.39-4.22,8.24-2.3,14.54.54,3.33-.36,5.03-2.69,5.08-2.43-.44-4.74-1.5-7.33-1.04,3.7,8.25-.49,17.26.88,25.74,1.1,6.83,3.1,3.78,6.4,6.24,2.61,1.95,4.03,10.29,4.26,13.57.27,3.96-4.88-.64-6.3-.53-2.39-2.73-4.29-5.1-5.55-8.59-5.39-14.96-5.15-52.27-2.76-68.31,1.41-9.5,13.37-4.16,17.75,1.5Z"/>
  <path class="cls-18" d="M604.63,53.59c2.93,9.1-2.72,21.36-9.97,7.92l-2.61-.59c-5.69-4.71-9.07,1.65-11.55,6.99l-4.42,13.15c-.79,1.48-2.28,2.01-3.83,2.07.33,3.74-1.31,5.45-5.05,5.09-1.54,5.64-6.33,13.97-11.81,15.64-.06,3.05-1.83,5.75-5.29,8.1l-3.61,10.66c6.18,17.87-10.33,10.34-7.87-2,4.27-15.32,29.98-43.76,38.57-60.42.91-1.78,2.19-3.7,2.86-5.52.81-2.24-.17-4.87,1.53-6.85,4.4-5.15,16.4-2.07,20.93,2.17,1.89,1.77,1.62,2.95,2.14,3.6Z"/>
  <path class="cls-18" d="M653.88,164.59c.88-.29,2.39.06,4.12-.6,3.29-1.25,4.62-5.69,9.49-5.69l1.05,7.33c.06-1.74-.03-3.49.01-5.23,3.01,2.24,0,7.22,0,8.9v19.9c0,2.28-2.35,10.29-3.14,13.09-5.22,8.48-9.43,4.59-11.96-3.37-5.12-1.04-7.07-3.06-5.85-6.06-1.37-2.67.3-4.26-.16-6.56-.43-2.18-4.11-4.79-2.84-6.92.25-.42,2.77-.71,3.01-1.72.29-1.18-2.34-2.68-2.14-5.12.44-5.43,4.4-6.64,8.41-7.95Z"/>
  <path class="cls-46" d="M321.69,171.93l1.29,1.7c5.41,2.24,7,4.54,4.78,6.9-7.93.37-12.3,1.1-2.3,5.59-.55,2.69-.76,4.95-.63,6.76.29.45-.35,2.73.02,3.14.19.2,3.24-2.16,4.75,1.07.72,1.54-.98,3.82-.59,4.16.13.11,2.26-.1,3.33.32,6.69,2.64,8.96,7.64,14.99,11.28,3.93,2.37,4.96-.11,2.65,7.26-14.7-5.33-35.9-22.88-46.14-35.06-4.48-5.33-11.19-11.92-3.64-17.3,7.41-5.28,14.78,1.37,21.48,4.18Z"/>
  <path class="cls-3" d="M80.67,164.59c2.83-1.49,1.32-5.26,3.24-7.76,2.3-3,4.78-1.58,7.2-2.44,6.75-2.4,7.09-5.18,13.97-.28,1,.72.19,2.46,1.78,2.09-.98-5.82,3.31-5.22,6.72-7.46,3.07-2.02.44-3.99,7.96-1.95-3.01,6.33,2.29,3.8,6.26,6.82,2.33,1.77,2.34,4.34,3.72,5.71,2.01,1.99,6.72,1.47,5.74,6.31-8.34-1.7-4.53,8.17-.06,8.98,1.19.22,1.99-1.24,2.64-1.23,1.08.02,2.74,2.47,4.74,1.67,1.01-3.73-3.46-1.42-4.19-2.1.91-2.66-.49-6.01,2.85-7.12,5.58-1.86,2.72,5.83,7.99,3.89.96-.35.82-1.9,2.01-2.37,2-.78,3.59.47,5.22.12,1.91-.41,4.41-3.11,7.09-2.89-2.96,7.19-18.48,10.31-25.15,12.57-1.14.38-2.27,2.42-3.64,2.1-1.58-.37-1.45-4.02-1.63-4.19-.48-.46-8.29,3.66-8.1-7.02.03-1.52,1.65-2.42,1.74-3.91.03-.5-.71-6.61-.95-6.86-.22-.22-5.99-.17-6.22.05-3.04,2.94,2.9,11.17-.31,14.35-1.62,1.6-5.91,1.31-8.13,1.3-1.22-1.84.04-3.74,3.76-5.72l.43-5.8c-1.9.82-3.21,1.04-4.19-1.05-.21-.01-.92-1.13-2.3-.87-10.61,2-18.25,8.38-30.18,5.06Z"/>
  <path class="cls-39" d="M172.89,337.39c6,1.72,7.46-5.15,7.98-5.3,1.8-.5,6.67-.61,5.64,2.15-1.19,1.75-1.97,3.92-2.1,6.28-5.48,14.86-12.22,29.23-17.81,43.98-3.49-3.76-3.82,3.83-5.76,1.05-4.62-6.64.23-9.08-.68-12.93-.29-1.24-1.75-1.43-1.94-1.73-3.95.35-3.13-4.53-.19-6.14l-2.68-6.63c-7.73-4.37-3.16-14.29,4.27-9.31,4.19-4.78,8.61-8.58,13.26-11.42Z"/>
  <path class="cls-3" d="M195.94,257.8c-4.37,10.37-8.91,17.99-14.49,26.88-.84,1.34-.95,3.87-1.49,4.35s-2.36-.06-2.73.29c-.71.66.23,3.41-.15,4.09-.1.18-2.35,0-3.61,2.14-4.92,8.34-5.84,17.55-11.05,24.53-2.39,3.21-4.55,6.79-4.2,11.03l.92,1.05c-4.21,4.74-7.53,9.74-9.96,14.98.42,6.72-1.81,11.15-6.68,13.29-.34.48-1.85.97-2.57,2.09-4.63,7.17,3.75,20.9-11.05,19.9l-1.97-.97c.74-5.34,4.02-11.26,6.82-15.39l1.81-6.37c3.22-3.31,5.77-9.41,5.91-13.91-2.37-2.32.73-10.89,4.19-10.47,7.26-14.66,16.1-28.69,24.1-42.94l2.56-1.54c1.89-3.71,19.15-35.24,21.7-34.81.89.15,1.49.98,1.94,1.79Z"/>
  <path class="cls-46" d="M266.15,185.54l1.06-2.09h1.02c1.12,1.42-.28,5.88.05,6.25.35.39,2.77-.25,3.11.03,2.35.06,3.39,2.59,3.12,7.57,1.86,1.48,1.91,1.55,2.22,3.8.09.65-2.11,12.01-4.5,11.6,1.4,1.26,2.22,2.36,1.26,4.25-.4,1.72-3.13,7.85-3.18,8.89-.03.63,2.12.47,2.22,1.12.28,1.91-1.57,3.52-1.71,5.13-.24,2.86,2.03,7.45.59,11.04l3.57-1.05c1.28,2.77,9.2,5.24,9.64,7.8.2,1.16-1.89,12.02-2.71,12.72-5.9-.2-8.97,1.7-13.65-2.71-4.81-7.39-3.69-11.4-5.24-19.9,3.22-11.57,1.01-23.72,2.1-35.61-1.99-.59-1.99-1.5,0-2.09.19-5.59.9-11.16,1.05-16.76Z"/>
  <path class="cls-33" d="M473.64,54.63c3.85,0,7.53-.82,11.06-2.46,4.87-.11,8.87-1.48,12.01-4.11,4.31-1.28,8.78-.89,13.4,1.18,3.4-2.54,9.24-2.37,6.49,2.26l-.39,2.34c-9.82,4.71-3.52,14.44,5.71,10.85l2.01,1.47c-.78,2.88.27,2.18,3.14-2.09-2.07-.25-1.97-1.29,0-2.09,2.19-2.35,3.29-.31,3.93,2.33.73,3.03-2.95,14.19-6.02,15.48-.67,2.41-3.5,3.17-8.48,2.29-.17,3.55-3.6,7.77-6.19,4-2.43-2.96,1.1-4.11,2.1-6.27-8.62-.19-3.17-2.24-3.1-4.71.01-.4-4.11-1.86-2.14-6.81-3.9-.69-1.6,7.06-2.12,9.93-.17.95-.99,1.44-1.02,1.59-3.66-.42-2.6-9.89,0-11.52-10.42-4.59-21.95-6.68-34.58-6.28-.1,3.18-3.45,2.84-4.19,0-2.84-2.12,1.65-4.75,2.55-3.52.31.42-2.06.56-1.5-1.71,2.39-.83,5.13-1.37,7.34-2.09Z"/>
  <path class="cls-47" d="M132.02,49.4c1.73-2.84,3.43-1.87,6.28-3.14-1.65,4.53-.04,4.61,1.27,7.67.73,1.7-.55,4.67,3.47,3.89,1.19-.23-.88-1.61,1.56-1.08,3.9,6.5-7.87,10.86-12.57,12.57-7.09,2.57-26.16,8.44-33.1,9.34-3.79.49-9.71.62-13.01-.96.01-3.67,3.88-7.12,6.82-8.89,3.86-2.33,7.56-2.25,11.8-1.38l4.45-4.5c3.89-1.19,4.58-2.89,2.09-5.12-1.57-1.86-.55-3.34,3.05-4.42,5.93-1.69,11.9-3.01,17.91-3.96Z"/>
  <path class="cls-12" d="M300.74,98.62c.98-.35,3.03-2.59,3.7-3.81,1.09-5.43,7.4-17.51,13.94-13.59,1.32.79,8.3,13.93,8.56,16.36-1.38,3.38-8.15,11.99-10.97,14.69-1.87,1.79-12.43,10.13-14.21,10.93-.65.29-.85-.44-1.01-.48-1.55.26-2.94.26-4.19,0l-1.93.34c.1-2.97-.65-5.88-2.27-8.72.44-2.71,1.44-2.78,2.1-4.19l2.1-4.19c.05-.33-.01-.7,0-1.05.23-2.76.93-4.15,2.1-4.19,1.55-3.19,1.93-1.87,2.1-2.09Z"/>
  <path class="cls-27" d="M84.87,205.44c5.41-1.07,9.88.59,4.7,5.73l-.79,4.95c6.1-2.02,13.12,4.66,7.62,9.21-11.5,3.7-32.15,12.95-43.41,11.43-2.45-.33-3.02-1.14-4.79-2,.77-10.51,4.78-15.35,12.03-14.54,1.01-3.47,3.69-4,6.65-2.04,2.95-2.24,5.64-4.4,8.08-6.48,3.75,2.82,5.26,1.79,4.54-3.08,2.27-.4,3.02-1.11,2.24-2.14,1.05-.36,2.1-.69,3.14-1.05Z"/>
  <path class="cls-9" d="M151.93,183.45c10.65-3,26.86-9.75,37.36-10.39,5.45-.33,12.96,6.02,13.81,11.18.63,3.79-1.58,6.21-4.02,8.63l-3.96,1.89c-2.37-1.1-5.36-2.04-4.92,1.61-4.74,3.24-9.82,2.49-15.23-2.25l-1.03-6.6c-3.5-.14-6.89-1.03-10.19-2.18-4.04,1.97-9.82,4.52-14.96,2.3-.65-.32-2.6.5-3.14-1.05,2.08-.8,4.17-1.85,6.29-3.14Z"/>
  <path class="cls-18" d="M615.11,150.98c1.32.95,1.9,1.89,1.31,3.33,2.18.01,11.38,1.18,8.71,4.46-.33.4-1.98-1.12,1.51-.46-1.67,6.76-4.44,18.46-8.38,24.09-2.02,2.88-8.24,6.11-11.87,5.07-1.28-.36-1.55-1.82-1.75-1.93.15-2.13-.82-3.44-2.91-3.91-3.86-6.13-2.44-18.74,3.42-23.62-.63-3.03,9.65-13.84,9.97-7.04Z"/>
  <path class="cls-33" d="M465.26,61.96c1.17-.28,3,.27,4.19,0l2.2,1.26c4.63,1.15,10.21,3.9,5.14,9.21-5.02-.87-7.64,3.48-11.52,5.25.38,2.81,6.52-.87,7.32,0,.36,2.88-.8,5.57-1.04,8.37,3.24,1.98,1.76,12.15-2.1,12.57l-1.99-1.13,1.6-15.22c-8.01,2.69-16.28,4.35-24.81,4.99l-2.05-2.24c-4.07-.43-3.65-.66-6.29-3.14l1.06-2.12c-1.22-7.86,4.98-13.91,12.72-11.77l7.98-5.34c3.28-2.38,5.8-2.6,7.58-.66Z"/>
  <path class="cls-25" d="M164.51,101.76c-10.31,2.12-10.1-7.78-3.32-13.22-2.51-.33-3.81-2.05-3.91-5.17-1.94-2.4-13.18-4.89-15.82-2.55-2.46,1.05-3.84,1.68-6.18,3.44l-7.55,1.62c8.03,7.83-3.09,11.02-6.22,1.68-3.08.06-5.99,1.75-8.14,3.87l-2.29-.14c-8.18-3.51-4.87-1.15-7.8,1.18-1.4,1.12-3.07-.06-3.79.43-1.51,1.04.16,4.09-4.13,1.01l5.23-4.72c9.12-4.59,19.63-10.38,29.34-13.61,11.35-3.78,27.48-8.48,34.8,4.49,4.71,8.34,2.71,13.63-.22,21.69Z"/>
  <path class="cls-18" d="M679.03,138.41c2.82,2.81,3.73-2.56,5.24-1.04.3.31-1.61,5.31.53,8.43.99,1.45,3.87-.7,5.84,2.51,1.63,2.64-.18,4.28.04,4.64.94,1.58,8.4,4.57,10.35,5.35,2.12,4.1,6.75,1.97,2.1,7.32,5.82-.09,5.76,5.53,7.54,8.74,1.39,2.51,7.71,6.89,8.27,7.61.66.85.66,3.24,1.01,3.52.17.14,2.3-1.36,4.43-.05,2.42,1.5,7.25,10.06,7.09,13.11l-4.23,1.63c-12.45-11.24-36.77-37.78-46.54-51.4-2.77-3.85-5.01-6.34-1.66-10.38Z"/>
  <path class="cls-44" d="M124.69,7.51c-.36,6.9-10.36-2.26-12.88-1.88-.35.05-6.3,2.63-6.58,2.85-3.85,2.98-1.1,15.06-9.88,10.56,2.89,5.56-2.64,2.44-3.7,4.17-.74,1.19,1.26,1.58-3.02,5.92s-5.5,6.52-9,11.9l.72,1.28c-7.14,4.94-12.26,11.2-15.34,18.77l-5.34,2.27c-2.19,3.77-4.97,5.75-8.34,5.95-.31.71-.66.7-1.05,0-1.83.37-1.83-.68,0-3.14,18.15-18.42,34-37.97,47.77-59.6,6.02-9.45,20.77-8.29,26.63.95Z"/>
  <path class="cls-14" d="M50.28,69.29h1.05c2.21,1.32,1.5,3.11.33,5.06l-10.81,9.6c-.78.3-1.39,1.35-2.6,1.61-.97.21-2.92-.99-3.62-.54-1.1.7-.86,7.04-1.11,7.31-.49.52-3.05-.94-3.7-.82-2.54.44-.87,5.34-1.74,6.9-.32.57-5.91,2.79-7.24,4.87-.89,1.4.28,2.58-.16,3.39-1.64,2.99-6.91,5.26-7.53,7.7-2.14,8.37,11.72,8.77,15.14,3.09.21,3.2-.88,8.69-4.69,6.27l.5,4.2c-2.03,1.18-5.14,4.5-7.8,4.26-.6-.05-.53-2.18-1.17-2.21-2.12-.09-3.5,1.96-7.39.17-3.07-1.42-1.88-3.11-2.79-4.02-2.97-2.97-2.75,1.92-3.9-6.57.62-1.94,1.82-2.51,3.25-1.07,1.94,7.4,2.43,6.72,1.45-2.04,1.89-3.45,2.96-6.83,3.19-10.14,2.84-1.4,3.36-2.57,1.54-3.51.71-1.03,1.35-2.13,2.1-3.14.85-1.02,2.1-.64,3.14,0,.02-1.5.69-3.01,2.1-2.09,1.53-2.66,4.55-6.72,7.34-7.33.91-1.72,2.66-3.12,5.24-4.19.64-1.38,1.6-2.9,3.14-3.14,1.69-3.55,3.78-5.65,6.29-6.28-.21-1.43.82-1.36,2.1-1.05.37-.32.67-.73,1.05-1.05,1.63-2.45,4.62-6.68,7.34-5.24Z"/>
  <path class="cls-33" d="M383.52,176.11v-5.23s-3.15-.01-3.15-.01c4.96-6.49-6.42-9.47,2.81-15.52,5.71-3.74,10.28-1,11.94-1.76,1.75-.8,1.78-5.29,4.04-3.55.18.13-.11,2.04.67,2.03.87-.02,2.05-1.07,3.13-1,1.99.12,3.52,3.02,6.76.96-1.89,6.01,4.8-.44,4.21,4.17,2.16-2.16,2.91-3.66,6.27-4.18,2.73.56,2.62,1.14,0,2.09-3.57,6.69-15.5,12.9-22.78,14.41-2.58.54-7.02-.39-8.69.74-1.01.68-1.85,4.63-3.06,6.14-.79.98-1.83.52-2.14.71Z"/>
  <path class="cls-18" d="M567.95,124.8c3.45-.67,2.18,5.69,5.06,8.06-3.45,4.31-.52,4.89-.24,7.17s-2.95,7.85-3.38,9.88c-.75,3.51,2.76,12.19,3.8,6.86.77-3.94,5.42-1.43,2.14,3.2-2.07,2.93-3.52-.93-6.33-.59-1.22,3.2,1.23,8.76,1.08,10.92-.05.64-2.1.5-2.2,1.24-.29,2.21-.41,15.44.07,17.47.16.69,1.59.71,1.74,1.07,1.94,4.82,3.42,9.6,6.66,13.78l-6.3,2.63c-2.27-1.68-3.42-2.52-4.78-5.18-6.37-12.48.26-49.11.59-64.99l1.05-10.47c-.01-.35.02-.7,0-1.05.3-.91.65-.9,1.05,0Z"/>
  <path class="cls-33" d="M435.92,110.14c1.47-1.61,3.38-.51,5.72,3.31-.24-4.26,3.69-9.76,7.98-6.71.79.56,7.69,15.71,6.21,18.06-.67.99-2.03,1.73-4.07,2.22,3.19,2.52,3.84,4.58,1.97,6.16-4.97.28-9.62,1.78-14.67-1.04,1.49,3.29-2.62,10.02-1.15,11.92,1.23,1.59,8-.03,7.51,5.34-.41,4.47-6.16,1.07-8.46,1.58-2.96-3.44-4.35-8.33-4.19-14.66-2.89-3.64-2.42-9.39,1.05-12.57.14-1.32.98-2.5,1.05-3.14-.11-2.55.24-4.99,1.05-7.33.14-1-.15-2.15,0-3.14Z"/>
  <path class="cls-38" d="M705.23,277.7c-5.61-2.56-5.8-2.58-11.76-4.48-6.97-2.23-11.57-1.74-9.18-9.66,1.31-4.34,2.14.2,3.73,1.48.88.7,3.08.75,3.43,1.3.73,1.14-.97,6.76,3.36,3.57,1.94-1.43-.57-5.73,3.07-4.78-.12,7.49,7.13,2.7,11.77,3.35,4.91.69,4.97,4.28,6.74,4.87,3.3,1.1,8.05-1.02,11.37,2.95l11-4.88c-1.85,4.72-.68,3.29,2.1,6.28-2.73,4.4-4.63,8.45-11,8.47-4.38.01-19.9-6.3-24.63-8.47Z"/>
  <path class="cls-12" d="M283.97,127.94c3.79-5.26-4.24-9.13-3.21-13.94.24-1.1,5.53-3.17,6.17-4.1.29-.42-.6-4.76.19-6.04,1.55-.29,1.29,1.61,1.48,2.63.51,2.8.14,6.32.11,9.23-.02,1.88-1.91,3.22,1.54,2.8,1.46,2.12,2.25,4.67,2.37,7.64,1.93-.91,3.94-1.01,6.01-.31,10.85-3.36,29.02-9.46,39.82-9.43l6.26,3.23-2.08,6.19c-2.64.84-1.63-1.59-2.83-2.04-6.11-2.32-6.85-.91-11.43-.41-1.32.15-4.21-1.07-4.58-.69-.26.27.4,2.62-.06,3.03-.57.51-3.13-.19-4.52.26-1.47.48-1.35,2.75-2.44,3.02-1.97.48-4.77-.59-6.97.14-1.92.63-2.37,4.43-4.55,4.96-1.97.48-3.33-1.35-5.03-1.47-4.72-.33-6.99.62-12.06-1.57-2.11-.91-3.81-2.97-4.19-3.14Z"/>
  <path class="cls-18" d="M665.41,202.3c-4.73,16.64-14.81,26.21-30.39,12.57,14.82-.48,1.75-3.99,2.14-11.45l6.24-.07c-2.21-6.46.18-6.32,4.2-10.47,1.92,3.75,5.8,3.08,7.37,4.68,1.05,1.08,2.01,7.73,5.74,7.68.79,0,2.67-3.4,4.7-2.94Z"/>
  <path class="cls-33" d="M432.77,136.32c2.7,1.5.91,7.73,1.2,8.19.75,1.21,4.06,1.62,3,6.47-.91.2-4.11,1.96-4.16,2.61,4.2,4.04,2.97,7.09,3.47,11.34.11.94,1.55,1.89,1.64,3.27.23,3.68-3.29,16.44,1.15,18.98,1.2.69,3.07-.84,4.2-.15,1.24.75,1.28,3.04,2.05,4.04.81,1.06,2.74,1.29,3.09,2.46.68,2.31-2.53,5.62-1.87,8.06.89,3.34,7.93,4.89,9.84,6.99,1.66,1.83-2.02.52-1.58,1.57l4.18,1.59c.31,1.72-3.23,1.15-4.19,1.04-1.21.01-2.6-.34-4.19-1.05-13.63-7.12-17.97-17.4-18.86-32.46-.94-9.01-1.15-18.31,0-27.23-.71-.22-.67-.58,0-1.05l1.05-11.52c-2.85-.95-2.86-2.18,0-3.14Z"/>
  <path class="cls-58" d="M57.62,257.8c8.86,3.81,23.13,10.24,31.44,11.52-5.38,1.02-3.38,2.48-5.16,4.76-2.3,2.94-5.32.09-8.46.49,2.26,2.06,9.42,9.49,6.17,12.47-.54.5-3-.06-4.08.09,2.33-5.08-1.38-3.32-5.24-3.14-.81,1.13-2.2,1.13-4.19,0-.92-.3-.9-.65,0-1.05l-7.34-3.14c-1.37.81-1.85.34-1.05-1.05.1-3.15-5.14-3.81-6.29-7.33l2.24-1.19c3.03,2.14,5.08,1.84,6.14-.9-1.85-1.98-4.04-3.63-6.55-4.96l.26-2.37c-3.4-2.39-2.26-5.69,2.1-4.19Z"/>
  <path class="cls-39" d="M108.97,418.03l3.16-1.56c-1.5,2.72.28,8.28-.34,10.3-.44,1.43-2.1,2.16-2.56,3.58-.58,1.8-.66,6.28-.85,6.55-.7,1.04-2.98,1.22-3.51,2.77-1.02,2.99,4.33,9.94-2.19,8.73-.76,1.97,1.55,3.53,1.66,4.73s-1.24,2.75-1.22,4.17c.02,1.91,1.94,4.09,1.71,6.14-.04.41-4.51,3.64-4.92,6.44-.12.82,8.31,10.4,6.95,14.12-.32.31-3.41-.76-4.19-1.04-14.45-5.25-9.77-18.85-6.57-30.13,3.35-11.83,8.49-23.34,12.85-34.8Z"/>
  <path class="cls-41" d="M141.45,80.81c0-1.04,0-2.1,0-3.14,4.62-.24,13.98.89,17.31,4.23,1.78,1.78.39,3.98.58,4.08.95.48,4.57-.53,3.81,3.8-.19,1.06-8.97,5.82-2.29,10.92l1.57-2.08,2.09,3.14c-1.57,4.31-2.71,6.64-5.24,10.47-4.18,1.31-2.73-3.5-1.05-6.28-.39-.62-.02-2.71-1.65-3.07-1.49-.33-4.25,2.19-6.06,1.81-3.25-.69-5.9-6.04-6.73-8.99-.74-2.65,3.18-3.4-3.37-4.41-3.07-.61-1.93-10,1.05-10.47Z"/>
  <path class="cls-46" d="M271.39,189.73c6.22-2.23,13.21-2.83,18.85-6.28,2.57,5.28-1.1,5.42-1.1,5.78,0,.42,1.82,7.44,3.21,7.83.01.35-.01.7,0,1.05-1.1,2.34-6.18,6.85-6.86,8.42-.93,2.12,1.09,3.57-.35,5.75-2,3.05-8.04,5.63-11.65,4.68-1.26-.33-2.3-3.2-4.19-3.65.2-2.09,3.8-3.28,4.08-4.34.49-1.9-1.25-6.42,2.2-9.3-5.26,1.02-2.57-8.64-4.18-9.94Z"/>
  <path class="cls-9" d="M254.63,113.28c2.2,7.96-4.7,4.95-9.06,2.7.58-3.46-7.42,1.91-6.83,2.3,14.07.91,9.28,25.95-1.92,11.75-3.46-3.21-8.13-15.93-8.01-20.62s3.62-7.24,6.97-9.75c12.68-1.64,14.65,3.86,18.86,13.61Z"/>
  <path class="cls-33" d="M439.06,92.33c1.71-5.13,5.8-5.9,10.8-4.31,3.36,1.06,10.62,7.45,7.02,10.59l.59,15.43c2.84,2.1,2.19,10.48-1.64,11.8-.92-.3-.9-.65,0-1.05-1.37-5.99-6.49-10.13-7.4-16.72-5.77-1.15-4.23,7.55-5.18,8.35-2.65,2.21-5.09-5.33-7.33-6.28.9-6.08,1.66-11.81,3.14-17.8Z"/>
  <path class="cls-33" d="M426.48,98.62c-.33,1.75-1.39,3.87-1.11,5.62.1.63,3.95.82,2.15,2.76-.36.39-1.64-1.77-2.1-.34s1.2,2.98-2.08,2.43c-.97-7.82-1.06-14.89-11.04-13.7-2.15.26-3.97,2.15-5,1.99-.83-.13-1.92-1.59-3.41-1.88-6.03-1.16-8.34.86-6.4,6.42,2.41,6.94,3.77,2.12,5.96,3.49,1.3.82-.11,2.54-.02,2.63-.73,3.98-14.5,8.75-18.15,8.34l-1.77-2.06c2.01-3.4,1.06-5.03,1.05-7.33-.03-7.91.75-4.4,5.13-6.92,2.19-1.26,3.69-3.32,5.79-4.63l-2.55-1.02c12.31-6.81,27.43-13.1,33.53,4.19Z"/>
  <path class="cls-33" d="M471.54,193.92c9.62,3.45,8.82,9.5,7.02,18,3.12-.23,4.62.76,4.5,2.95-11,2.25-12.97,2.83-24.1,0,2.19.18,4.31-.01,6.49-.31,1.18-.16,5.11-.28,5.03-1.78-2.07-.21-4.72.48-6.64-.18-.46-.16-6.48-6-7.01-6.61-2.89-3.38-3.4-8.87-3.11-13.12,2.02-.52,3.17,1.75,4.88,1.9,2.09.18,7.94-1.32,12.92-.86Z"/>
  <path class="cls-18" d="M690.56,72.44c2.26-.47,2.99-.02,4.46-.23,5.42-.77,5.06-3.81,11.82,1.28l6.77,7.33c-4.77,9.46-10.06,15.9-17.81,23.04-1.68-1.23-1.16-3.42,1.57-6.56l-9.12-14.01c1.58-3.3,2.35-6.57,2.31-9.79v-1.05Z"/>
  <path class="cls-33" d="M530.23,80.81c-2.75,8.51-8.83,5.49-5.24-1.05.35-2.72,2.05-7.98,3.15-10.16,1.01-1.99,1.72-6.5-1.05-7.64l-2.23-.93c-1.08-3.81-3.83-6.99-8.25-9.55-.2-.07-.71-2.22-2.41-1.97-1.12.16-2.31,1.65-3.57,1.78-2.15.22-4.26-1.49-6.58.2l-.02-3.16c-1.87,1.22-4.88.18-6.5,1.04-1.2.63-1.21,2.57-2.52,3-3.26,1.09-6.58-1.96-5.65,3.31-1.34-1.24-5.19-2.16-6.83-1.89-.66.11-.42,1.71-1.16,1.82-1.6.24-6.28.18-7.72-.98,16.75-5.51,40.58-18.77,55.59-2.67,7.96,8.54,2.9,19.16,1,28.85Z"/>
  <path class="cls-12" d="M143.55,259.89c0,.35.03.7,0,1.05-.92,1.67-1.27,3.07-1.05,4.19-2.58,13.53-6.86,23.2-18.86,30.37,3.04-4.03-1.41-2.91-2.53-5.19-.32-.64.27-2.01-.15-3.09-.81-2.06-3.63-3.54-2.08-6.38,1.01-1.86,7.1-4.7,8.98-6.79,1.72-1.91,4.82-9.62,5.27-9.96.57-.44,3.82,1.53,5.19,1.04,0-4.07.86-10.43,5.23-11.52-.02,2.09.07,4.2.01,6.28Z"/>
  <path class="cls-18" d="M690.56,73.48c3.26,3.09-.97,6.46-.38,9.16l9.68,14.6-4.06,6.61c-2.33,2.14-4.75,4.48-7.34,6.28-3.24,1.91-4.04.88-2.1-2.09-.12-.94-.47-1.29-1.05-1.05-.64,2.2-1.69,3.25-3.14,3.14-1.29-.16-4.37,3.21-4.19-3.14.45-1.05-.25-1.4-2.1-1.05-1.19.02-1.19-1.03,0-3.14,5.1-9.71,10.9-18.93,14.67-29.32Z"/>
  <path class="cls-20" d="M81.72,206.48l1.32,2.11h-2.38c2.05,1.78.37,6.57-1.18,7.16-1.73.66-3.87-2.81-6.15-1.93,2.67,6.6-.01,2.96-2.12,3.72-1.08.39-3.77,3.44-5.79,3.6-.56.05.04-2.84-2.03-2.09-2.3.84-.24,3.92-.54,4.17-1.32,1.07-3.99-1.74-4.72-1.74-.33,0-5.48,3.04-5.8,3.34-1.58,1.49,1.07,10.09-4.14,9.93-5.14-2.51-12.02-8.72-6.23-14.08,2.23-2.07,13.45-5.48,17.21-6.88,7.39-2.74,15.12-4.74,22.55-7.31Z"/>
  <path class="cls-30" d="M592.05,236.86l-3.14,2.1c2.19,2.15-1.12,5.02-3.26,6.74-.97.78-2.84.44-3.03.6-2.33,1.97,2.71,1.78,2.09,3.12-4.71.25-9.51-.29-14.22-.03-1.35.08-2.4,1.08-2.54,1.09-3.36.14-22.05.46-23.05-1.06-2.55-3.9,11.57-7.32,14.45-8.06,11.12-2.85,21.54-3.36,32.7-4.5Z"/>
  <path class="cls-2" d="M291.3,55.68c1.88.55,1.88,1.25,0,2.09,3.29.8,7.26,1.68,10.88.23,6.19.54,15.63,11.01,10.08,15.48-6.92,2.17-13.59,5.51-20.96,6.28-1.12-5.39-1.49-7.87-2.21-14.02-.38-3.27-5.77-13.73.59-12.11,1.02.26,1.5,2.01,1.62,2.05Z"/>
  <path class="cls-28" d="M158.22,105.95c.6.96,1.23,1.87,2.09,2.62l-2.07.99,1.02,2.67c-6.62,10.01-7.92,8.43-18.86,11.52.18,1.86-.68,2.11-2.57.75-1.1,2.82-5.97,4.18-7.91,1.35l-1.03-8.34c2.83-.03,7.65-3.37,9.15-5.49.47-.66-1.58-3.07.72-5.04.22-.19,5.05-1.99,5.33-2,3.99-.16,6.6,2.6,8.57,2.87,1.45.2,3.42-2.57,5.55-1.89Z"/>
  <path class="cls-44" d="M78.58,90.24c3.82.29,12.42-.71,10.99,4.21-7.77-2.37-7.29.12-10.02,5.47-.43.85-2.02.85-2.07,1.42-.19,1.99,1.46,2.95,1.87,4.38.49,1.72-.04,4.46.73,5.56.85,1.21,3.08.55,3.98,1.05,1.44.79.3,3.26,3.96.95,2.87,5.69-4.95,4.09-5.31,7.86-.51,5.46,7.01,9.48,7.46,12.59l-4.24,3.64c-6.15-3.66-9.93-11.65-11.53-18.85-1.76-7.94-3.1-23.16,4.19-28.28Z"/>
  <path class="cls-9" d="M113.16,172.97c-.33.35.18,2.48-1.67,2.91-.65.15-1.84-.58-2.88-.41-.86.14-1.67,1.25-2.27,1.27-1.6.03-3.89-2.68-6.79-.62l2.09,1.04c-1.73,4.25-3.31.45-4.93.14-2.83-.54-3.55,4.67-4.81,5.83-.53.49-2.06.37-2.69.97-2.78,2.61-5.3,5.58-8.53,7.71-4.64-2.41-9.4-7.21-3.68-11.54,4.61-3.49,28.47-11.74,35.12-13.6l2.54-1.52c.3-3.38,1.2-4.62,2.7-3.71.17.24,2.01,5.31,1.95,5.6-.28,1.59-4.73,4.42-6.15,5.92Z"/>
  <path class="cls-24" d="M122.59,25.31c5.85.22,9.37,1.9,14.67,3.14-.9,4.31-5.26,8.93,1.55,6.26,2.38,3.04-1.54,3.47-2.27,4.51-.88,1.26-1.06,2.9-1.92,3.92-1.12,1.34-10.59-.34-13.08,1.01-2.45,2.15-8.09-.97-7.34-4.19-.81-3.21,3.56-5.97,3.73-7.21.27-2.02-2.55-4.78-1.64-7.45,2.09.04,4.2-.08,6.29,0Z"/>
  <path class="cls-40" d="M236.81,130.04c.15.14,1.44-.4,1.91.2,1.01,1.29-1.48,3.55,2.78,2.93,3.89-.57,4.47-5.45,3.65-8.67-.15-.6-3.1-1.3-2.07-3.88-1.93-.47-.36,2.12-1.56,2.1-.98-.01.06-1.75-1.27-2.13-1.86-.53-6.63.51-2.38-4.67,1.81-2.22,6.76-1.96,7.86-5.77,3.2-.57.74,4.37,1.62,5.18.35.32,4.9-.21,5.72,2.14l1.56-4.18c2.18,5.04,5.19,9.92,4.19,15.71-6.9,9.24-15.36,12.89-22.01,1.05Z"/>
  <path class="cls-46" d="M258.82,179.26c.71,2.74-.59,7.69-3.14,8.38l-2.41-.8c-1.82-7.64-5.2-6.46-10.14,3.54-.83,4.96-3.09,9.35-7.36,11.93.28,1.95-1.07,3.21-4.06,3.77-.37,2.67-3.9,4.75-6.42,4.61-1.68,2.66-6.65,4.36-5.24,0,3.9-5.86,10.96-15.14,13.62-20.95,1.72-3.68,4.16-6.83,7.34-9.43.32-2.49,5.62-9.35,8.38-7.33,5.76-.33,8.02.7,9.43,6.28Z"/>
  <path class="cls-33" d="M471.54,193.92c4.15.38,4.09.79,7.79,1.57s9.57-.81,12.08,1.1c1.09.83,1,2.47,1.11,2.56.45.34,1.88-1.92,3.57-2.02,1.6-.09,3.89,1.42,5.84.98-1.95,7.19-7.22,9.37-12.57,4.18l1.05,9.43c3.47-1.02,6.37-2.53,10.47-3.15-7.24,3.37-9.62,4.61-17.81,6.28-1.18-.79-5.96-.83-6.23-1.1-1.29-1.3,1.25-9.36.83-11.74-.56-3.22-4.68-5.27-6.13-8.1Z"/>
  <path class="cls-18" d="M628.73,139.46c.56,3.27-2.03,5.31-7.77,6.12l-2.23,2.07c.56,3.2-.89,5.67-3.63,3.33-2.98-2.33-3.57,2.38-5.34,3.62-1.01.71-2.94.47-3.05.58-.49.48,1.5,3.31.98,4.04-.38.54-3.12.43-3.91,2.98-.27.89-2.16,7.66-2.18,8.09-.03.7.73,8.91.85,9.37.22.81,8.35,1.68,2.17,5.87-1.14-.59-3.46-1.43-4.19-2.09-.45-.41-3.04-2.94-3.14-3.14-4.21-8.46,3.42-20,7.95-27.14,4.07-6.41,17.57-28.3,23.49-13.7Z"/>
  <path class="cls-32" d="M291.3,57.78c1.07-2.61,5.75-2.52,8.69-2.42,11.88-8.86,35.76-4.72,21.73,12.7,2.25-1.56,4.55-2.12,4.17,1.24-5.96,3.46-8.22,2.49-13.62,4.19.13-6.44-4.49-12.62-11.08-13.56-5.62-.79-7.96,3.21-9.88-2.15Z"/>
  <path class="cls-18" d="M714.66,54.63l3.14,10.46c-2.75.79-2.47-2.83-3.89-3.16-3.68-.85-5.18,2.24-4.51-4.17-2.7,2.02-1.67-.67-3.39-1.41-2.61-1.12-13.24-1.49-15.84-.5-1.68.64-1.47,3.05-2.29,3.04-1.84-.02-4.4-2.31-8.52-1.82-1.71.2-2.74,1.63-4.05,1.74-1.56.14-3.84-1.41-4.5-.93s-.61,3.01-3.18,3.56c-1.18.25-2.5-.65-3.64-.58-.61.04-1.03,5.05-3.83.05,1.43-.61,2.76-1.52,4.19-2.09,3.32-.94,6.54-2.3,9.43-4.19.33-.08.71.07,1.05,0,1.95-.39,3.7-1.08,5.24-2.09,1.04-.35,2.11-.71,3.14-1.05,2.4-.09,4.49-.78,6.29-2.09,8.8-1.78,18.59-1.84,25.15,5.24Z"/>
  <path class="cls-18" d="M90.11,203.34c4.82-.86,6.92-.51,6.29,1.05,1.67,3.55,8.81,5.81,10.61,7.79,1.37,1.51-1.41,4.88.85,6.4,1.6,1.11,8.19-.11,10.54-.58-.16,2.04.23,4.29,0,6.28-2.33-.64.64-5.56-2.59-5.22-4.15.43-14.62,4.72-19.42,6.27.09-8.48-3.57-8.73-10.48-5.24,1.69-4.81-.45-10.81,5.23-13.08l-6.28-1.58c1.55-.53,3.29-1.43,5.24-2.09Z"/>
  <path class="cls-52" d="M708.37,242.09c.92.3.9.65,0,1.05l1.05,2.08c-6.72.52-7.03,9.15-15.15,8.38-10.38-.98-2.57-18.85-15.45-11.4-.89.52-.87,2.07-1.41,2.04-.3-.02-5.23-2.22-5.45-2.42-1.52-1.33-.09-3.8-.25-3.91-.45-.29-2.27.17-3.15-.01-.92-.3-.9-.65,0-1.05,13.82,1.25,26.14,2.52,39.82,5.24Z"/>
  <path class="cls-39" d="M141.45,345.77l2.09,6.29-2.07-1.06c-.64,7.13-8.03,10.93-7.36,18.86l-2.08-1.06c2.07,4.7-1.56,5.12-2.69,8.35-.68,1.96-.11,4-.46,5.27-1.3,4.67-3.94,14.23-5.71,17.79-.52,1.04-4.39,3.05-5.84,5.76-1.13,2.11.62,3.23-2.58,5.79-1.94,1.55-2.99,1.87-2.64-1.07.5-1.25.38-3.59,1.05-5.24,1.24-1.49,1.76-3.36,2.1-5.24.34-.81.78-1.47,1.05-2.09,4.48-10.57,9.99-20.93,14.67-31.42,1.51-1.55,2.56-3.65,3.14-6.28.13-.64-.13-1.46,0-2.09,1.1-1.53,2.15-2.92,3.14-4.19.1-.67-.15-1.51,0-2.09.3-.91.65-.9,1.05,0l2.1-4.19c-.84-1.11-.4-2.4,1.05-2.09Z"/>
  <path class="cls-15" d="M137.26,149.93c1.53-.82-1.07-4.44-1.39-4.83-2.52-3.11-8.47-4.5-3.33-10.85,4.64,4.03,3.45.13,6.42-1.99,8.45-6.04,10.8,4.35,18.22,5.11,1.68-.09,1.68.95,0,3.14-.53.42-1.47.63-2.1,1.05-3.45.33-7.02,1.57-9.43,4.19-.7.34-1.39.72-2.1,1.05-1.54-.27-2.93.43-4.19,2.09-.7.36-1.4.69-2.1,1.05Z"/>
  <path class="cls-51" d="M313.31,49.4c3.32-.46,5.31-1.8,9.74-.83,7.95,1.75,12.59,13.09,6.03,19.25-1.26,1.18-2.35.98-3.19,1.47-1.31-2.19-3.7,2.95-5.8.01-2.28-3.2,3.18-5.95,3.54-6.98,2.34-6.71-3.45-9.01-9.23-10.4-4.43-1.07-2.72,1.24-3.69,1.47-.6.14-3.24-1-4.29-.48-.67.33-5.86,4.86-6.3,4.88-2.16.07-5.61-2.22-8.82-.01-.28-.77-.79-1.35,0-2.09,1.5.51,4.1-1.7,5.24-2.09,2.44-.85,4.87-1.39,7.34-2.09l9.43-2.09Z"/>
  <path class="cls-5" d="M557.47,113.28c-1.51,2.22-5.37-1.01-6.28,1.58-.69,1.98,4.35,5.68,5.54,8.89,1.68,4.52-1.27,4.38-1.27,4.67,0,.54,1,1.32.96,1.6-.19,1.27-2.25,2.85-3.43,3.38-9.69,4.37-17.06-3.21-14.39-12.81l.54,6.26c1.35.28,4.08,6.84,5.73,5.26,2.88-2.76-.66-8.12-.55-9.5.06-.75,3.47-10.78,3.96-11.72,1.14-2.19,5.04-3.71,7.09-7.05,2.54-.92,3.45,1.46,2.73,7.16l-.64,2.27Z"/>
  <path class="cls-8" d="M148.79,187.63c2.44-1.43,6.28-.2,8.63-1.06,2.11-.77,1.11-5.35,4.48-1.03.93-3.97,3.38-.9,6.52-.24,1.92.41,4.28-.12,5.89.39,3.12.98.94,6.04,1.9,7.06.22.23,1.65,0,2.51.52.42.26.41,1.26,1.28,1.64.95.42,2.63-.24,3.35.08.38.17-2.73,5.48,5.26,1l-2.1-3.11c2.26,1.12,5.83-2.35,6.79-2.12,1.47.36.45,4.66,5.78,2.11-6.55,6.5-22.54,7.87-31.44,10.47-3.47-5.55,3.89-6.17,5.56-9.75.86-1.83-1.53-3.07-.32-4.9-3.2,1.21-6.31-1.51-8.46-1.59-5.93-.22-6.75,5.12-14.5,2.04-.71-.28-.92-1.4-1.14-1.51Z"/>
  <path class="cls-33" d="M466.31,56.73c6.53,2.54.89,1.17-1.05,5.24-8.88,2.13-9.21,5.56-14.69,7.89-1.5.64-2.99-.63-4.46-.34-10.27,2.04-6.12,11.36-7.13,12.29-.47.43-2.35-.18-3.07.05-1.68,1.53-2.37-.13-2.1-2.09-3.38-4.21-6.56-7.88-.55-11.55,5.39-3.29,25.57-8.91,33.04-11.49Z"/>
  <path class="cls-6" d="M352.08,186.59c5.46,3.01,15.14,6.97,18.99,12.09.8,1.07-.15,1.46-.12,1.53-.75,3.11.14,3.57-3.71,4.63-2.8.77-4.29,1.16-4.68-.96-.82-4.49-5.17,2.04-6.93,2.37-3.81.7-6.93-1.09-5.65-5.28.3-.97,3.99-1.85,3.99-5.68,0-2.6-9.64-9.47-1.88-8.68Z"/>
  <path class="cls-33" d="M524.99,79.77c-.07.55,1.74,3.71,1.06,5.24,4.03-1.14.81-5.03,4.18-4.19-.7,3.58-1.24,5.96-2.1,9.43.08-1.57.67-4.46-2.11-2.63-2.18,1.44-1.07,3.67-2.36,5.93-3.43,6.01-7.27.36-10.83-.17-2.23-.33-6.95,2.41-6.48-3.5.27-3.3,2.48-2.96,3.96-3.83.75-.44,2.25-.1,3.23-1.46,1.27-1.75.8-4.65.96-4.83.35-.39,8.78.83,10.48,0Z"/>
  <path class="cls-50" d="M337.41,179.26l4.19,2.09c2.08,1.06,4.27,1.58,5.24,2.09-5.31,7.84-8.26-1.3-11.13-1.85-7.6-1.46-6.41,7.58-10.88,11.27-.08-.13-1.75.42-2.08-.68-.26-.89,1.5-4.99.99-5.52-.22-.23-4.08-.74-5.5-2.13-1.3-1.27-1.49-4.64-3.86-5.85-.97-2.11,3.91-2.66,5.21-2.58l-1.04,4.17c3.49-1.05,4.39-3,8.37-1.04.94-3.75-3.19-1.39-4.19-2.1,2.17-2.64-2.13-1.66-1.04-5.23,5.97,2.5,10.02,4.55,15.72,7.33Z"/>
  <path class="cls-45" d="M200.14,241.04c4.79,2.24-.26,3.85-.85,5.97-1.15,4.12-1.55,6.51-3.34,10.78-2.26-.04-2.85,1.33-4.03,2.78-1.72,2.12-10.29,15.15-11.14,17.15-.73,1.73-.25,4.5-.72,5.04-1.02,1.19-5.37-1.02-2.99,5.4l-2.07-1.06c-.11,3.45-1.67,4.94-3.82,7.2l-1.44-1.95c9.82-17.49,19.65-34.25,30.39-51.32Z"/>
  <path class="cls-34" d="M96.39,204.39c-.09.01-.64-.91-1.36-.75-1.95.43-5.29,4.43-4.93-.3,8.91-3.03,17.01-6.12,26.2-8.38.6-.15,1.91.23,2.09,0,.61-.81-.54-9.93.02-10.48s5.22.16,5.21,1.57c0,.38-1.47,1.53-1.53,2.47-.26,4.22-.29,3.51-1.3,7.26-1.41,5.23.69,6.09-6.38,8.28-7.66,2.38-11.24-.63-18.02.32Z"/>
  <path class="cls-12" d="M326.93,97.57c-3.41-.65-9.11-15.53-10.99-15.68-2.13,1.17-3.63,2.34-5.17,4.24-3.21,3.96-5.05,9.54-7.99,13.77-1.45,2.09-2.5.59-2.05-1.28.31-.43-.31-2.53,0-3.14,1.53-.89,2.58-2.28,3.14-4.19.78-2.32,1.2-5.51,2.34-7.61,6.99-12.85,26.79-1.02,20.71,13.89Z"/>
  <path class="cls-33" d="M533.37,183.45c-3.49-2.42-6.84-9.51-3.14-12.57.08-1.49,1.04-2.28,2.1-3.14.27-2.17,2.98-5.36,5.24-5.24-.17-2.27,1.71-6.09,4.19-5.24,1.34-1.36,4.84-3.25,5.19-.54.1.77-4.54,12.88-5.32,14.55-2.31,4.93-4.99,8.03-8.25,12.18Z"/>
  <path class="cls-46" d="M225.29,210.67c1.83,1.21.71,3.25-3.37,6.13l-.82,3.29c-4.73,6.01-5.51,8.34-10.88,13.73-1.68,1.68-7.34,10.95-7.99,4.08,5.84-9.2,11.77-18.14,17.81-27.23l.63.8,4.61-.8Z"/>
  <path class="cls-18" d="M626.64,158.31c-2.6,4.74-1.51-.03-3.84-.85s-6.17-.85-8.74-1.24c.18-1.81.49-3.51,1.06-5.23.06-.18,1.3-.39,1.61-1.09.51-1.14-.49-2.33-.27-2.9.08-.22,3.26-3.1,3.47-3.21,1.79-.98,3.79-.99,5.6-1.8,1.36-.61,2.64-2.3,3.22-2.52.27-.1.69.07,1.05,0,1.15,6.67-1.62,12.66-3.14,18.85Z"/>
  <path class="cls-55" d="M225.29,74.53c2.92-.78,6.49-.33,9.43-2.09-3.4,7.66-5.45,9.08-4.19,17.8l-4.19,1.05c-7.8-4.6-12.72-13.62-1.05-16.76Z"/>
  <path class="cls-49" d="M10.46,102.81c.53-.22,7.33-1.98,6.28.51s-5.88,3.37-6.21,3.82c-.3.41.75,2,.34,3-1.13,2.77-2.83,3.78-3.23,7.69-.33,3.29,3.43,7.69-.6,7.79-.32,0-3.67-.78-3.8-.93-1.09-1.22,1.79-5.94-2.22-5.12-.04-.27-1.08-.91-1.03-2.45.11-3.68,7.1-12.94,10.46-14.3Z"/>
  <path class="cls-58" d="M61.81,269.32c.85,2.66.74,3.13-.01,6.28-2.07-1.93-6.55-2.99-8.37-4.19s-1.96-1.96-3.14-3.14c-2.56-2.86-1.1-5.04,2.1-3.14,2.25-3.11,7.4,2.03,9.43,4.19Z"/>
  <path class="cls-18" d="M689.51,136.32c5.57,1.03,7.35,2.35,11.53,4.19-.94,1.73-4.89,2.9-6.09,1.83-.42-.37-.08-1.68-.23-1.79-2.16-1.63-2.06,1.75-2.21,1.87-1.29,1.02-10.61-5.17-3-6.09Z"/>
  <path class="cls-17" d="M206.42,72.44c-7.89,4.07-10.04,1.75-17.81,0h17.81Z"/>
  <path class="cls-33" d="M431.72,179.26c-1.99-8.52-.96-18.36-1.05-27.23h1.05c-.03,8.84-.51,18.5,0,27.23Z"/>
  <path class="cls-53" d="M49.24,261.99c2.43-.5,3.48.2,3.14,2.09.91.35.91.7,0,1.05-.14.33-2.61,1.29-2.1,3.14-2.16-2.16-4.74-3.31-4.19-7.33,1.46-.35,2.06.49,3.14,1.04Z"/>
  <path class="cls-57" d="M155.08,141.56c-4.13,2.71-6.17,2.61-9.43,4.19-.24-2.66,7.03-6.49,9.43-4.19Z"/>
  <path class="cls-33" d="M541.75,157.26c-1.37,1.4-2.29,3.34-4.19,5.24-2.87,1.16-2.38.16-1.05-2.09.96-1.41,1.84-4.66,3.14-6.28.84.75,1.25,2.28,2.1,3.14Z"/>
  <path class="cls-18" d="M602.53,107c2.88,4.16,5.69,7.76,11.53,7.33-2.87.66-6.86,1.56-9.43-1.05-.86-.87-1.76-4.79-2.1-6.28Z"/>
  <path class="cls-19" d="M722,245.23c-4.89.86-8.95-1.51-13.62-2.09v-1.05c5.08,1.01,8.6,1.78,13.62,3.14Z"/>
  <path class="cls-58" d="M68.1,282.93v1.05h-1.05c-1.16.43-1.13,1-1.05,2.09-2.37-1.48-4.02-2.28-6.29-4.19-1.48-1.87-.85-2.47,1.05-1.05,1.95-.69,4.39,0,7.34,2.09Z"/>
  <path class="cls-47" d="M117.35,161.45c-1.49,1.1-.75,3.68-2.07,4.78-.92.77-2.36.22-3.17.45,1.74-2.01,2.89-3.92,1.05-6.28,1.3.07,2.24-1.7,4.19,1.05Z"/>
  <path class="cls-29" d="M50.28,69.29c-2.79.53-5.01,3.28-7.34,5.24.53-3.82,4.91-5.92,7.34-8.38v3.14Z"/>
  <path class="cls-35" d="M57.62,257.8c-3.15-.65-1.97,1.55-2.1,4.19-.29.88-.64.87-1.05,0-3.25.91-3.4-1.32-3.14-4.19-.56-1.07.49-1.42,3.14-1.05h1.05c.76.34,1.48.78,2.1,1.05Z"/>
  <path class="cls-18" d="M606.73,56.73c-.61,6.69-4.04,12.69-7.16,18.51-3.25,6.08-11.06,19.02-15.9,23.38-.95-3.69-.14-6.86,1.05-10.47l-1.07-2.55c3.92-6.76,6.22-15.4,6.48-23.23l1.93-1.45c5.26-4.51,3.76-.56,5.63,1.71,7.47,9.06,6.86-3.12,6.94-9.04.78.97,1.17,2.26,2.1,3.14Z"/>
  <path class="cls-19" d="M668.55,236.86v1.05c-3.64-.74-8.97-1.66-12.57-2.09,3.32.2,6.73-.29,10.04-.04,1.36.1,2.33,1.07,2.53,1.09Z"/>
  <path class="cls-57" d="M157.17,140.51c.19-.88-.27-2.56,0-3.14.39-.82,3.37-2.1,2.1-5.24,2.14,4.56,1.61,5.42-2.1,8.38Z"/>
  <path class="cls-9" d="M54.48,261.99c-.02,1.42-.7,2.19-2.1,2.09-1.38-.12-2.31-1.67-3.14-2.09,2.99.78,1.68-1.42,1.05-4.19.3-.91.65-.9,1.05,0-.09,2.13,1.72,2.96,3.14,4.19Z"/>
  <path class="cls-39" d="M186.51,334.25h1.05c-.65,2.08-2.46,4.43-3.14,6.28-.86-2.31-.77-7.32,2.1-6.28Z"/>
  <path class="cls-32" d="M313.31,49.4c-2.49,1.94-6.33,2.1-9.43,2.09,3.89-1.1,5.21-1.51,9.43-2.09Z"/>
  <path class="cls-15" d="M150.88,126.89c-2.39-.21-13.44,3.26-16.77,4.19,1.14-1.13,3.83-2.68,5.24-3.14,2.62-.87,9.52-2.76,11.53-1.05Z"/>
  <path class="cls-1" d="M385.62,98.62c-.85.6-1.25,3.18-3.67,3.2-2.78.02-2.05-2.47-2.61-3.2,2.67,2.81,3.27,1,6.29,0Z"/>
  <path class="cls-18" d="M565.86,136.32c.07-3.31-.91-8.04,1.05-10.47.1,3.2.78,8.13-1.05,10.47Z"/>
  <path class="cls-15" d="M158.22,131.08c-3.63.06-4.77.94-4.19-3.14.81.35,1.59.26,2.67,1,.78.54,1.02,1.54,1.52,2.15Z"/>
  <path class="cls-3" d="M137.26,354.15c-.34,2.37.27,4.19-3.14,4.19.45-2.15.52-4.84,3.14-4.19Z"/>
  <path class="cls-8" d="M151.93,183.45c-1.25,2.94-3.84,2.61-6.29,3.14-.92-.3-.9-.65,0-1.05,2.12-.7,4.1-1.48,6.29-2.09Z"/>
  <path class="cls-18" d="M567.95,124.8h-1.05c-.06-1.16.73-3.41-1.03-3.13-.88,3.35-5.51,6.99-8.4,8.37l9.96-10.47.52,5.23Z"/>
  <path class="cls-18" d="M675.89,105.95c4.48-4.58,6.05-.13,2.1,1.05-.53.16-1.43-.09-2.1,0-.51-.26-.47-.62,0-1.05Z"/>
  <path class="cls-18" d="M685.32,108.04c1.05,1.69,1.08,3.54-1.05,4.19-.47-.11-1.56-2.03-2.1-2.09.47-1.74,2.15-2.2,3.14-3.14.92.3.9.65,0,1.05Z"/>
  <path class="cls-46" d="M233.67,171.93c-3.48,4.21-1.91,2.13-4.19,2.09-.69,0-1.41-.06-2.1,0,1.66-1.97,4.11-1.63,6.29-2.09Z"/>
  <path class="cls-12" d="M292.35,114.33c.03,1.46,3.1,3.6,3.14,3.88.23,1.62-2.05,3.73,1.05,4.5-.47.15-1.33,1.81-3.14,1.04,2.19-5.49-.97-4.34-1.05-8.37,0-.33-.05-.72,0-1.05Z"/>
  <path class="cls-3" d="M134.12,360.43c-.5,2.47-.11,7.11-3.14,6.28.91-2.03,1.75-4.07,2.1-6.28h1.05Z"/>
  <path class="cls-18" d="M686.37,108.04c-.26,1.79.26,2.48,2.1,2.09-1.17.82-2.33,2.52-4.19,2.09l1.05-4.19c.3-.91.65-.9,1.05,0Z"/>
  <path class="cls-18" d="M689.51,49.4c-.88,2.72-4.02,2.18-6.29,2.09,2.14-.7,3.74-1.58,6.29-2.09Z"/>
  <path class="cls-31" d="M54.48,256.75l-3.14,1.05h-1.05c-.12-.54-.67-1.11-1.02-1.58.06-.6.62-.46,1.02-.52,1.38-1.01,3.17-.16,4.19,1.05Z"/>
  <path class="cls-58" d="M59.72,278.75c.79.27.89.16,1.05,1.05.97.28.95.63,0,1.05-.02.07-1.31.13-1.05,1.05-1.06-.89-2.84-1.52-3.14-3.13,1.07.71,2.99-.06,3.14,0Z"/>
  <path class="cls-33" d="M434.87,120.61c.25-2.29-.94-5.85,1.05-7.33-.32,2.34-.82,5.29-1.05,7.33Z"/>
  <path class="cls-57" d="M143.55,146.79c-1.15.53-2.98,1.47-4.19,2.09.69-1.58,3.26-4.67,4.19-2.09Z"/>
  <path class="cls-18" d="M680.08,52.54c-.81,2.86-3.43,1.71-5.24,2.09,1.34-1.68,3.46-1.49,5.24-2.09Z"/>
  <path class="cls-16" d="M55.52,256.75h-1.05c-1.29-.11-3.05-1.2-4.19-1.05,1.77-2.9,4.09.53,5.24,1.05Z"/>
  <path class="cls-39" d="M113.16,405.46c.69-1.7,1.39-3.56,2.1-5.24.04,1.97-.3,4.1-2.1,5.24Z"/>
  <path class="cls-46" d="M285.02,263.04h-1.05c.27-1.3-.62-6.29.52-6.29l.52,6.29Z"/>
  <path class="cls-18" d="M673.79,54.63c-1.74,2.66-6.3,3.79-9.43,4.19,3.1-1.23,5.53-3.2,9.43-4.19Z"/>
  <path class="cls-36" d="M300.74,95.48c.8-1.55,1.87-2.99,3.14-4.19-.6,1.79.63,4.31-3.14,4.19Z"/>
  <path class="cls-58" d="M142.5,265.13l-.96-.49,2.01-3.7c-.23,2.26-.82,3.01-1.05,4.19Z"/>
  <path class="cls-19" d="M454.78,212.77v1.05c-2.18-.81-2.54-1.23-4.19-2.09,1.52-.41,3.17.92,4.19,1.05Z"/>
  <path class="cls-17" d="M341.6,181.35l-4.19-2.09c1.44.7,2.86,1.41,4.19,2.09Z"/>
  <path class="cls-18" d="M145.64,185.54v1.05c-1.01.22-2.15,1.44-3.65,1.05-.7-.2-.43-.69-.54-1.05,1.38-.39,2.83-.6,4.19-1.05Z"/>
  <path class="cls-48" d="M740.86,253.61l-3.14-3.14c2.11,1.24,1.96-.64,3.14,3.14Z"/>
  <path class="cls-33" d="M509.27,204.39c-1.79,1.08-2.77,1.34-4.19,2.09.55-1.92,2.36-2.27,4.19-2.09Z"/>
  <path class="cls-18" d="M675.89,105.95c.08.33-.06.71,0,1.05-3.78-1.67-1-2.29,0-4.19.15.97-.22,2.29,0,3.14Z"/>
  <path class="cls-12" d="M294.45,110.14c-.09-1.8.17-3.65,2.1-4.19-.42,2.79-1.48,2.87-2.1,4.19Z"/>
  <path class="cls-18" d="M701.04,158.31c-1.63-3.14.35-9.76,3.2-9.02,3.52.91,9.12,8.65,12.36,10.75,4.53,2.94,9.41,1.92,13.03,3.73,1.88.94,4.22,5.2,5.68,6.06,1.61.94,3.67.69,5.48,1.69,2.13,1.18,7.03,11.31,6.37,11.91-3.05-1.42-5.89,2.79-6.8,2.87-.41.04-7.51-2.15-7.87-2.34-1.91-.98-1.95-3.54-2.12-3.66-.38-.27-4.42,3.88-7.29,2.66-3.22-1.37-4.94-8.39-5.4-8.79-.93-.79-4.47.36-5.07-.19-.22-.2-.37-4.14-1.01-5.79-3.28-8.48-3.24-6.96-10.55-9.88Z"/>
  <path class="cls-39" d="M172.89,331.11c1.53,1.94.69,4.2,0,6.28-1.88,5.68-3.96,4.61-5.93,6.63-1.84,1.89-4.13,6.61-7.34,6.83-2.18.14-3.82-4.8-6.2,1.16-1.22,3.05,1.44,1.94,3.2,4.25,1.65,2.17,1.71,4.53,2.71,6.53.51,1.03,1.91.48,2.06,1.31.5,2.78-6.24,1.92-3.16,6.8-2.94-.75-2.53,4-4.7,3.13-4.74-1.9.48-4.52.55-4.84,1.13-5.52-6.14-11.67-11.57-8.76,6.92-9.63,2.56-10.25,5.89-17.7.43-.97,8.62-10.44,9.83-11.63.43-.42,1.52-.62,2.1-1.05,4.66-1.53,2.35,5.51-.23,7.78,2.26,4.86,3.47,2.87,3.63-5.97.54-4.68,8.51-5.24,9.17-.76Z"/>
  <path class="cls-33" d="M471.54,86.05c4.72-1.27,3.67,6.35,4.72,9.42,1.04,3.03,7.11,16.29,6.8,18.32-1.49,2.85-4.11-.44-6.11.71-1.05.6-2.43,6.15-3.29,7.46-.31.48-4.5,5.7-4.81,5.92-2.09,1.47-5.1.55-6.51,1.36-.84.48-1.49,4.07-4.16,4.84-2.22.63-3.81-.93-4.46-.9-1.09-4.1-7.41-5.02-1.57-9.42l3.66,1.04v1.05c.21,1.79.67,1.64,1.39-.45l8.53-3.81c-.64-4.24-.66-8.39.37-12.59,1.69-1.04,2.45-3.45,2.28-7.24.3-1.02.76-1.95,1.05-3.14,1.27-5.19,1.64-7.15,2.1-12.57Z"/>
  <path class="cls-33" d="M504.03,68.25c-7.93,3.5-18.22,4.11-25.15,9.43h-1.05c-1.73-1.63,1.25-1.39.96-3.55-.13-.98-1.96-1.51-2.01-1.68-.36-1.18-.08-5.45-1.18-6.15-1.93-1.23-6.03,2.19-6.15-4.32.15-.03.67-2.19,2.41-1.96,6.61.86,8.08.93,14.88,1.12,4.71.13,16.01,1.48,17.29,7.12Z"/>
  <path class="cls-33" d="M480.97,85.01c-2.13,5.64,3.39,5.54,4.07,8,1.24,4.49-5.84,4.82-7.02.67-.57-2.01-.65-9.39,2.95-8.67Z"/>
  <path class="cls-33" d="M487.26,102.81c-.2-6.27-1.09-12.54-1.05-18.85,2.65,5.26,3.16,13.25,1.05,18.85Z"/>
  <path class="cls-33" d="M487.26,116.42c-.7.1-2.2-.07-2.1-1.05,2.05-2.35.07-3.03,0-5.24-1.93-1.51-1.65-6.13,1.05-6.28h1.05c.06,4.18-.04,8.39,0,12.57Z"/>
  <path class="cls-33" d="M486.22,103.85c-1.23,1.94-1.11,4.1-1.05,6.28-3.55.85-1.74-3.36-2.1-6.29h3.15Z"/>
  <path class="cls-33" d="M483.07,79.77c-2.02-.36-3.65-.6-5.24-2.09h1.05c2.85-.6,2.98.94,4.19,2.09Z"/>
  <path class="cls-18" d="M592.05,60.92c1.12,6.17-2.54,16.03-4.5,22.21-.54,1.71-2.24,3.2-2.84,5.02-3.67.27-6.09,3.96-6.87,7.31-.38,1.62.61,3.08.35,4.49-.68,3.68-3.21,7.46-1.87,12.28-2.41.5-4.72-1.62-6.8-1.64-4.12-.04-7.95,5.54-12.06,2.69-3.97-3.03.42-6.72-2.1-9.43,2.9-4.73,6.07-8.05,8.84-12.63.71-1.18.44-3.31,1.08-4.16,1.22-1.61,4.14-.6,4.65-1.11.46-.46-.24-2.99.57-4.14.74-1.06,2.98-.65,3.5-1.2.71-.76,3.65-14.21,7.56-19.16,3.13-3.96,9.21-7.55,10.48-.53Z"/>
  <path class="cls-18" d="M584.72,101.76c-.59-.39-2.48-.04-3.12-1.57.43-.85,1.55-1.09,2.07-1.57.28,1.08.43,2.18,1.05,3.14Z"/>
  <path class="cls-46" d="M243.1,168.78c-1.56.55-2.68,1.34-5.24,2.09,1.14-1.8,3.26-2.14,5.24-2.09Z"/>
  <path class="cls-18" d="M635.02,66.15c3.38,0,2.15,2.84,1.05,5.24.35,1.2-.1,2.15.97,3.7s4.13,2.41,4.32,3.26c1.07,4.73-7.66,5.83-11.08,9.77-1.82,2.09-1.74,4.38-3.14,6.29-3.26,4.46-7.95,2.18-10.01,3.61-1.66,1.15.47,4.93-3.61,5.81-3.27.7-.39-8.95.03-10.45,1.36-4.97,2.41-9.71,3.67-14.66,1.23-4.86,5.73-9.58,6.13-11.21.98-4-5.04-5.09,6.44-4.5-.12-3.89-2.96-5.06,2.1-6.28.39,2.12,2.39,6.42,3.14,9.43Z"/>
  <path class="cls-18" d="M635.02,66.15c1.55-.81,2.33-2.5,4.19-2.09.44,3.06-.92,5.39-3.14,7.33-.54-1.86-.57-3.34-1.05-5.24Z"/>
  <path class="cls-18" d="M643.4,58.81l-6.26.54c1.56-3.88,4.46-4.59,6.26-.54Z"/>
  <path class="cls-39" d="M177.08,293.41c.83-1.08,6.43-5.51,7.76-5.17,1.18.3,1.71,2.72,2.78,3.56,1.47,1.15,3.7,1.01,4.51,2.93,1.12,2.68-.68,15.32-2.47,18.06-4.26,6.53-5.39,1.53-7.86,1.53-.78,0-.39,1.8-.63,1.98-2.11,1.64-2.52-2.35-3.72-3.76-1.55-1.82-4.93-3.84-5.43-6.31-.32-1.57,3.95-11.37,5.06-12.82Z"/>
  <path class="cls-46" d="M258.82,179.26c.09.35.97.51.86,2.26-.18,2.99-4.19,13.15-5.62,16.56-3.93,9.36-9.31,18.36-14.11,27.26-1.69-4.53.49-8.99-2.67-13.56-4.68-6.78-13.1,4.39-16.19,8.33-2.04-5.62,1.07-4.2,3.22-6.78.85-1.01.69-2.25.97-2.65,2.67-3.92,3.01-2.43,3.94-3.4.51-.54.05-2.1.48-2.58.22-.24,5.74-2.37,6.06-2.39,2.92-.66,4.89-2.89,5.91-6.7,4.12-6.5,7.61-8.02,10.47-4.57.48-2.17.94-3.7,3.53-3.4.85-2.23,3.26-5.04,3.14-8.38Z"/>
  <path class="cls-39" d="M160.32,330.06c1.21-4.93,4.14-6.83,6.5-10.79.37-.62,3.05-10.48,5.03-8.06s-4,2.78-1.09,6.59c2.91,3.81,8.46,1.2,9.4,1.84.69.47,1.24,7.51.88,8.59-1.71,5.17-4.93,3.2-8.14,2.87-1.83-.19-5.04-1.52-6.34-.61-2.36,1.66,1.45,13.05-5.77,11.87-.57-.09-3.41-4.18-3.4-4.46,0-.33,2.41-2.61,3.05-4.17,1.11-2.7-.16-3.48-.11-3.67Z"/>
  <path class="cls-39" d="M187.56,322.74l-.51,4.18c-1.61-1.13-1.82-2.25-1.57-4.18h2.08Z"/>
  <path class="cls-12" d="M144.6,225.34c.46-.51.81-.17,1.05,1.05.06,1.74-.03,3.49,0,5.24-1.72,1.41-.88,4.34-1.33,6.53s-2.77,6.31-2.86,6.72c-.35,1.6.53,4.65-.17,5.45-.16.18-4.31,1.83-4.56,1.83-1.27,0-8.44-5.09-12.04-4.82,2.62-5.47-4.05-10.76-4.26-13.14s2.13-3.61,2.16-5.71c3.96,2.95,7.12-2.47,10.94-2.1,3,.29,5.39,4.99,8.96,4.19.82-1.16-.12-4.65.23-5,.48-.48,1.78-.11,1.88-.24Z"/>
  <path class="cls-18" d="M145.64,226.38l-1.05-1.05c.29-.37-1.02-7.68,0-9.43.63,3.97.89,6.19,1.05,10.47Z"/>
  <path class="cls-28" d="M141.45,80.81c0,2.1-.6,8.78-1.05,10.47-.17.65-1.6,1.44-2.1,2.09-10.26,2.62-20.39,5.99-30.39,9.43-5.39-.44.38-5.18.69-5.62,1.9-2.71,2.01-4.3,2.46-5.9.81-2.89,9.96-7.87,12.3-4.96,1.22,1.52,1.04,5.45,5.51,4.96.84-2.73-4.04-3.51-4.14-4.69-.31-3.82,8.59-3.46,10.82-4.67,2-1.09-1.92-5.5,5.9-1.1Z"/>
  <path class="cls-28" d="M144.59,101.75c-.79.79-4.24.49-3.13-2.6,1.3-3.61,4.51,1.23,3.13,2.6Z"/>
  <path class="cls-1" d="M371.99,130.04c1.86-5.44-1.19-11.63.02-17.07.16-.73,3.29-1.33,3.14-4.46-.09-1.73-5.3-4.18-4.2-7.78,2.68-1.14,4.43,3.19,4.73,3.17,1.77-.12,7.02-4.73,6.79,3.1-.14,4.81-3.39,9.33-4.13,13.15-.69,3.5,1.66,11.59-3.75,11.02-1.48-.16-2.28-1.07-2.6-1.13Z"/>
  <path class="cls-33" d="M421.24,140.51c1.32,1.32.55,4.34-1.05,5.24-.7,0-1.4.03-2.09,0,.09-1.68-.67-4.39,1.04-5.24.19.19,1.51-.12,2.1,0Z"/>
  <path class="cls-33" d="M423.34,141.56c-.4,1.51-.95,2.16-1.05,4.19-.7,0-1.4,0-2.1,0,.23-1.6.37-3.82,1.05-5.24.22-.46.73-.7,1.05-1.05,1.02-.9,1.37-.2,1.05,2.09Z"/>
  <path class="cls-33" d="M537.56,162.5c-1.94,1.94-2.66,3.33-5.24,5.24.02-.25-.97-.88-.48-2.07.67-1.62,3.75-3.91,4.67-5.26l1.05,2.09Z"/>
  <path class="cls-33" d="M532.32,167.74c-.48,5.3-.82,2.08-2.1,3.14-2.65-2.72.32-1.83,2.1-3.14Z"/>
  <path class="cls-29" d="M83.82,39.97l.72,2.59c-5.03,4.54-29.66,28.41-10.66,26.98l2.6.8c-1.66,2.91-3.76,5.13-2.1,8.37-.69.67-5.55-2.44-6.25.62-.25,1.08.84,2.33.87,3.11,0,.2-3.8,1.67-1.94,3.6.85.89,3.35-1.67,4.19-2.09-9.22,9.92-17.92,19.99-28.29,29.32-2.35-2.03,2.89-4.28,3.55-5.23,2.04-2.94,5.8-16.48,7.93-20.28.73-1.31,2.42-.38,3.13-.74.23-.12.26-4.99.07-5.16-.36-.34-9.09-1.22-9.91-1.08-.68.11-4.98,2.44-6.86,3.17-.04-4.36,6.76-7.9,9.11-10.81.77-.94.64-2.84,1.36-3.86,2.54-3.56,3.91-3.13,5.9-6.28,2.15-3.41,6.98-2.85,8.54-4.43s.96-6.27,2.27-8.47c1.42-2.39,8.28-4.01,11.59-9.1l4.19-1.05Z"/>
  <path class="cls-14" d="M111.06,57.78c2.77-.73,5.55-1.66,8.38-2.08-.16,2.82-5.02,2.91-5.25,3.14-.48.48,1.5,3.59,1.06,4.17-.17.22-3.43.49-4.42,1.09-.88.54-5.33,5.2-5.71,5.23-3.33.28-6.67-1.69-11.2,1.17-2.28,1.44-1.41,3.63-1.79,4.04-.37.38-1.96-1.05-3.1-.56-1.04.45.47,4.26-3.11,3.7-1.84-.88-2.08-1.75-3.14-3.14-.06-.07.19-.96-.32-1.82-.34-.57-1.94.15-1.79-.8.16-1.05,1.53-.18,1.91-.64.3-.36-1.39-1.98.15-3.57,2.03-2.1,5.7.02,8.7-.72,1.74-.43,2.75-2.29,3.93-2.92,5.9-3.15,9.26-4.58,15.72-6.28Z"/>
  <path class="cls-4" d="M83.82,39.97c1.26-1.85,2.63-6.6,3.57-7.43,3.5-3.06,12.96.64,9.01-8.28,2.24,1.94,8.8-2.94,9.33.49s-4.77,4.85-5.66,6.84c-.98,2.2-.26,4.89-1,7.37-.34,1.13-9.8,19.95-10.6,20.83-3.32,3.68-7.96,3.48-11.99,10.54-5.32,4.17-12.77,1.84-11.32-5.5,2.6-13.21,11.74-14.74,18.66-24.87Z"/>
  <path class="cls-18" d="M624.54,191.82c2.08.81,4.48,1.15,4.18,4.19-1.55-.71-3.57-2.64-4.18-4.19Z"/>
  <path class="cls-58" d="M77.53,287.12c-1.19.17-3.14,1.94-5.23-.52,1.81-2.8,2.75-.23,5.23.52Z"/>
  <path class="cls-58" d="M72.29,283.98l-.54,2.11-4.7-2.11c.27-.1.68.06,1.05,0,1.24-.2,2.84.06,4.19,0Z"/>
  <path class="cls-33" d="M424.39,138.41c-.34,1.58-.84,2.35-1.05,3.14l-1.05-2.09c.63-.7,1.09-1.08,2.1-1.05Z"/>
  <path class="cls-39" d="M172.88,365.66c-.15.15-.69-.05-1.02,0-.28-1.87.06-3.67,2.07-4.18.11.82-.81,3.94-1.05,4.18Z"/>
  <path class="cls-33" d="M527.08,61.96c.07.65.05,1.44,0,2.09-.94,1.74-1.99,2.44-3.14,2.09-14.85,6.32-20.56-10.69-7.34-14.66.11.04,1.09-.9,2.07-.41,5.55,2.74,7.79,4.77,8.41,10.89Z"/>
  <path class="cls-33" d="M527.08,64.06c-.41,5.08-6.02,7.97-3.14,2.09.34-.14,1.3-2.59,3.14-2.09Z"/>
  <path class="cls-33" d="M431.72,150.98c.02-3.62-.88-8.76,1.05-11.52-.13,3.67.97,8.71-1.05,11.52Z"/>
  <path class="cls-9" d="M54.48,261.99c.37.03.86-.1,1.05,0,.36.19,5.71,5.22,5.99,5.56.51.6.16,1.35.3,1.78l-9.43-4.19c.13-.3-.13-.76,0-1.05.57-1.27-1.36-2.4,2.1-2.09Z"/>
  <path class="cls-58" d="M68.1,282.93l-7.34-2.09c.06-.27.05-.77,0-1.05,2.18-1.63,5.39,1.78,7.34,3.14Z"/>
  <path class="cls-18" d="M686.37,108.04h-1.05v-1.05c.9-.86,1.48-2.93,3.13-3.14.42,1.86-1.27,2.63-2.09,4.19Z"/>
  <path class="cls-23" d="M82.77,117.46h-3.14s0-2.08,0-2.08c1.45-.32,2.79.56,3.14,2.08Z"/>
  <path class="cls-46" d="M255.68,187.63c-.89,2.35-2.14,3.72-1.05,6.28-2.72,1.41-5.04-3.6-6.79-3.13-1.19.32-1.25,2.91-1.97,3.81-.6.74-1.75.99-2.5,2.16-1.12,1.75-2.18,6.14-3.4,7.13-1.02.83-2.13-1.74-4.2-1.59-.55-3.55,2.66-4.48,3.92-7.07.78-1.59.58-3.96,1.56-5.78,4.62-8.61,10.55-16.13,14.43-1.81Z"/>
  <path class="cls-3" d="M138.31,352.05c-.31-2.06,1.52-3.07,2.1-4.19.17,1.83-.14,3.68-2.1,4.19Z"/>
  <text class="cls-43" transform="translate(185.38 484.06)"><tspan x="0" y="0">N</tspan><tspan class="cls-59" x="125.54" y="0">L</tspan><tspan class="cls-22" x="215.57" y="0">BN</tspan></text>
  <text class="cls-42" transform="translate(41.04 576.39)"><tspan class="cls-54" x="0" y="0">Ne</tspan><tspan x="49.2" y="0">at</tspan></text>
  <text class="cls-42" transform="translate(215.67 576.39)"><tspan x="0" y="0">Li</tspan><tspan class="cls-21" x="30.3" y="0">b</tspan><tspan class="cls-37" x="52.75" y="0">r</tspan><tspan x="65.85" y="0">ary</tspan></text>
  <text class="cls-42" transform="translate(425.32 576.39)"><tspan x="0" y="0">Br</tspan><tspan class="cls-11" x="38.7" y="0">i</tspan><tspan class="cls-54" x="49.1" y="0">n</tspan><tspan class="cls-56" x="70.4" y="0">g</tspan></text>
  <text class="cls-42" transform="translate(623.36 576.39)"><tspan class="cls-54" x="0" y="0">N</tspan><tspan class="cls-26" x="27.25" y="0">o</tspan><tspan x="49.25" y="0">w</tspan></text>
</svg>